<?xml version="1.0" encoding="UTF-8"?>
<svg version="1.1" xmlns="http://www.w3.org/2000/svg" width="1024" height="1024">
<path d="M0 0 C337.92 0 675.84 0 1024 0 C1024 337.92 1024 675.84 1024 1024 C686.08 1024 348.16 1024 0 1024 C0 686.08 0 348.16 0 0 Z " fill="#FEFEFE" transform="translate(0,0)"/>
<path d="M0 0 C0.8979126 0.00027191 1.7958252 0.00054382 2.72094727 0.00082397 C15.96800171 0.01920143 29.07453591 0.37611682 42.24755859 1.88867188 C44.97121592 2.19124553 47.69567464 2.43518558 50.42578125 2.671875 C82.30317418 5.68091839 113.84743662 13.40515509 143.9375 24.1875 C145.07219727 24.58984863 146.20689453 24.99219727 147.37597656 25.40673828 C153.58385685 27.61324076 159.76998902 29.87063858 165.9375 32.1875 C165.9375 32.8475 165.9375 33.5075 165.9375 34.1875 C166.741875 34.249375 167.54625 34.31125 168.375 34.375 C172.2978601 35.26968739 175.07483033 36.78191931 178.49609375 38.8359375 C180.84697153 40.13738344 183.2383304 41.15839285 185.71313477 42.19628906 C190.36195556 44.26787423 194.87354882 46.62599342 199.39697266 48.95581055 C201.16534866 49.86362833 202.94007112 50.75904889 204.71484375 51.65429688 C217.88392439 58.43054833 230.05778357 65.82407934 236.015625 79.90625 C239.27688857 91.51413727 237.16399417 102.49694375 231.9375 113.1875 C231.45410156 114.32251953 231.45410156 114.32251953 230.9609375 115.48046875 C229.9375 117.1875 229.9375 117.1875 226.9375 118.1875 C225.56346838 119.54305768 225.56346838 119.54305768 224.1875 121.3125 C220.37148351 125.8125972 216.27931043 130.00265765 212.125 134.1875 C211.45436523 134.87086426 210.78373047 135.55422852 210.09277344 136.25830078 C209.45758789 136.89493652 208.82240234 137.53157227 208.16796875 138.1875 C207.59457764 138.765 207.02118652 139.3425 206.43041992 139.9375 C204.9375 141.1875 204.9375 141.1875 202.9375 141.1875 C202.9375 141.8475 202.9375 142.5075 202.9375 143.1875 C201.3152546 144.89743434 199.64336575 146.56097684 197.9375 148.1875 C197.380625 148.785625 196.82375 149.38375 196.25 150 C194.9375 151.1875 194.9375 151.1875 192.9375 151.1875 C192.71384766 151.73567383 192.49019531 152.28384766 192.25976562 152.84863281 C190.54036971 155.88995719 188.24126001 158.16983621 185.78125 160.609375 C185.27831421 161.11422424 184.77537842 161.61907349 184.25720215 162.13922119 C183.19720014 163.20057997 182.13468512 164.25943419 181.06982422 165.31591797 C179.43609954 166.93889124 177.81336706 168.57231068 176.19140625 170.20703125 C175.15949524 171.23762146 174.12696441 172.26759152 173.09375 173.296875 C172.36399963 174.03269806 172.36399963 174.03269806 171.61950684 174.78338623 C168.16744349 178.1875 168.16744349 178.1875 165.9375 178.1875 C165.669375 178.785625 165.40125 179.38375 165.125 180 C163.91256504 182.23343283 162.99097727 183.68688199 160.9375 185.1875 C157.7837655 184.71129866 155.4352048 183.45124584 152.7265625 181.81640625 C151.90438232 181.32906006 151.08220215 180.84171387 150.23510742 180.33959961 C149.35314697 179.81503174 148.47118652 179.29046387 147.5625 178.75 C130.80004272 168.96515294 113.24164529 161.66717016 94.94140625 155.34960938 C89.34615695 153.39579252 89.34615695 153.39579252 86.72265625 152.05859375 C84.5269765 150.9871789 82.53931973 150.67594598 80.125 150.3125 C74.29402546 149.33289628 68.68525163 147.81255522 63.00390625 146.1875 C42.94428235 140.92892608 21.48761579 141.00156284 0.875 140.9375 C0.09317352 140.93232361 -0.68865295 140.92714722 -1.49417114 140.92181396 C-3.71635511 140.91016309 -5.93796871 140.91322649 -8.16015625 140.921875 C-9.44414307 140.92413086 -10.72812988 140.92638672 -12.05102539 140.92871094 C-15.1759598 140.87164737 -15.1759598 140.87164737 -17.0625 143.1875 C-17.34154629 146.29788944 -17.34154629 146.29788944 -17.2578125 149.9453125 C-17.2549826 150.60836395 -17.25215271 151.27141541 -17.24923706 151.95455933 C-17.23803435 154.07405583 -17.21293051 156.19313104 -17.1875 158.3125 C-17.17747028 159.74869182 -17.16834441 161.18489025 -17.16015625 162.62109375 C-17.138095 166.14336628 -17.10356494 169.66539203 -17.0625 173.1875 C-17.64628418 173.26790527 -18.23006836 173.34831055 -18.83154297 173.43115234 C-21.53396759 173.80517005 -24.23572565 174.18381465 -26.9375 174.5625 C-27.8553125 174.68882812 -28.773125 174.81515625 -29.71875 174.9453125 C-35.08936698 175.70173743 -40.37740011 176.63484512 -45.68457031 177.74926758 C-47.90430586 178.15834615 -50.05623106 178.37916119 -52.3046875 178.55078125 C-58.8234552 179.21009496 -64.97085511 181.3971226 -71.1875 183.375 C-72.48549531 183.78188031 -73.78350973 184.18869969 -75.08154297 184.59545898 C-83.04837449 187.11366708 -90.84341584 189.86415641 -98.5078125 193.19140625 C-101.0625 194.1875 -101.0625 194.1875 -104.0625 194.1875 C-104.0625 194.8475 -104.0625 195.5075 -104.0625 196.1875 C-105.02671875 196.58453125 -105.9909375 196.9815625 -106.984375 197.390625 C-118.83388774 202.47579278 -130.44488803 208.89081512 -141.0625 216.1875 C-141.59117676 216.54779297 -142.11985352 216.90808594 -142.66455078 217.27929688 C-151.59856897 223.3964657 -159.92764197 230.04946764 -168.0625 237.1875 C-168.90167969 237.91453125 -169.74085938 238.6415625 -170.60546875 239.390625 C-181.67147014 249.13881546 -192.01937915 259.52750535 -201.0625 271.1875 C-201.84882813 272.156875 -202.63515625 273.12625 -203.4453125 274.125 C-210.50775692 282.98072968 -216.32763126 292.43335933 -222.0625 302.1875 C-222.44180664 302.82365234 -222.82111328 303.45980469 -223.21191406 304.11523438 C-230.85631626 316.93676119 -236.9372808 330.18171666 -242.0625 344.1875 C-243.114375 343.589375 -244.16625 342.99125 -245.25 342.375 C-254.1612248 337.94304572 -265.66455058 335.16987743 -275.46875 337.84375 C-283.33763987 340.88638742 -287.77418741 346.58564295 -291.25390625 354.09375 C-297.61703442 370.5702558 -297.86614507 396.54215504 -290.875 412.75 C-290.52566406 413.53246094 -290.17632812 414.31492187 -289.81640625 415.12109375 C-288.73485001 418.08556656 -289.27755627 420.17854902 -290.0625 423.1875 C-290.48668112 427.55303072 -290.42917025 430.45415949 -288.4375 434.4375 C-287.98375 435.345 -287.53 436.2525 -287.0625 437.1875 C-287.8125 439.4375 -287.8125 439.4375 -289.0625 441.1875 C-290.69939932 444.46129864 -290.73641249 447.66337047 -290.0625 451.1875 C-288.74057699 453.44087029 -287.26694516 455.34462208 -285.5703125 457.328125 C-284.05597097 459.19555134 -283.05654229 461.00639751 -282.0625 463.1875 C-282.7225 464.1775 -283.3825 465.1675 -284.0625 466.1875 C-284.77167294 471.44020051 -284.77167294 471.44020051 -282.859375 476.1953125 C-280.20999832 479.39329748 -277.87870452 481.47850406 -274.0625 483.1875 C-274.14951172 484.29158203 -274.14951172 484.29158203 -274.23828125 485.41796875 C-274.63039725 491.75789932 -274.63039725 491.75789932 -271.8125 497.25 C-269.27585196 499.19118669 -269.27585196 499.19118669 -266.984375 500.03515625 C-264.4444081 501.55810389 -264.27608745 502.73631813 -263.5625 505.5625 C-262.65166204 508.72275548 -262.28538804 509.97098018 -259.875 512.3125 C-258.0625 514.1875 -258.0625 514.1875 -258 517.5625 C-258.0309375 519.356875 -258.0309375 519.356875 -258.0625 521.1875 C-257.02061161 524.52233044 -257.02061161 524.52233044 -255.0625 527.1875 C-254.258125 527.455625 -253.45375 527.72375 -252.625 528 C-248.93379443 529.71055868 -248.42970166 532.30302476 -247.0546875 535.99609375 C-245.66666764 539.06175967 -244.05734993 540.69007504 -241.0625 542.1875 C-240.711875 543.074375 -240.36125 543.96125 -240 544.875 C-237.65558016 548.88320167 -235.15394364 550.32898727 -231.29296875 552.75390625 C-228.39827685 554.61441751 -226.17457358 556.46224376 -224.0625 559.1875 C-223.94140625 562.34375 -223.94140625 562.34375 -224.0625 565.1875 C-224.85946289 565.16655273 -225.65642578 565.14560547 -226.47753906 565.12402344 C-230.08906434 565.04086678 -233.70038824 564.98883966 -237.3125 564.9375 C-238.56675781 564.90398438 -239.82101562 564.87046875 -241.11328125 564.8359375 C-242.31855469 564.82304688 -243.52382813 564.81015625 -244.765625 564.796875 C-245.87583008 564.77592773 -246.98603516 564.75498047 -248.12988281 564.73339844 C-251.7555049 565.29480845 -252.91198704 566.25615369 -255.0625 569.1875 C-255.25394525 571.19767512 -255.44340324 573.20842208 -255.5859375 575.22265625 C-256.45256184 578.79570579 -259.15737731 580.12970476 -262.0625 582.1875 C-263.70699869 585.47649737 -263.02137015 589.03784736 -262.90234375 592.65625 C-263.0625 595.1875 -263.0625 595.1875 -265.0625 597.1875 C-264.96673232 599.17661658 -264.80603714 601.16280063 -264.61230469 603.14477539 C-264.54458029 608.66938864 -265.30380201 611.4050568 -268.91113281 615.60717773 C-270.66172166 617.39598077 -272.44904873 619.14934224 -274.265625 620.87109375 C-275.22578048 621.8222018 -276.1834813 622.77579353 -277.13885498 623.73170471 C-279.14068188 625.7211724 -281.16209208 627.68721797 -283.20214844 629.63745117 C-285.78975217 632.11220212 -288.33418168 634.62620244 -290.86626053 637.15760708 C-292.84132202 639.1270929 -294.83194608 641.08020497 -296.82796478 643.02842903 C-298.22212441 644.39107641 -299.60842031 645.76175494 -300.9944458 647.13267517 C-311.58881418 657.22734465 -322.09509679 661.81070909 -336.6171875 661.52734375 C-345.36628719 661.07814626 -353.01329969 657.27225583 -359.28125 651.22265625 C-362.78496137 647.21951234 -365.44490421 642.79849566 -368.0625 638.1875 C-368.51657227 637.3939209 -368.97064453 636.6003418 -369.43847656 635.78271484 C-370.97131906 633.09105137 -372.48887115 630.39140936 -374 627.6875 C-374.49733643 626.80231689 -374.99467285 625.91713379 -375.50708008 625.00512695 C-376.1977356 623.74962036 -376.1977356 623.74962036 -376.90234375 622.46875 C-377.52677368 621.34049805 -377.52677368 621.34049805 -378.16381836 620.18945312 C-379.0625 618.1875 -379.0625 618.1875 -379.0625 615.1875 C-379.7225 615.1875 -380.3825 615.1875 -381.0625 615.1875 C-381.37703125 614.40246094 -381.6915625 613.61742187 -382.015625 612.80859375 C-384.84293364 605.7957728 -384.84293364 605.7957728 -388.375 599.125 C-390.0625 596.1875 -390.0625 596.1875 -390.0625 593.1875 C-390.7225 593.1875 -391.3825 593.1875 -392.0625 593.1875 C-392.289375 591.929375 -392.51625 590.67125 -392.75 589.375 C-393.54813797 585.78337914 -394.65671452 582.68735665 -396.25 579.375 C-407.96620405 554.37132255 -414.86771661 525.38902009 -419.0625 498.1875 C-419.23088379 497.10227051 -419.39926758 496.01704102 -419.57275391 494.89892578 C-425.4380388 456.36395107 -427.69602356 417.00839684 -423.0625 378.1875 C-422.8771167 376.59349365 -422.8771167 376.59349365 -422.68798828 374.96728516 C-417.48129306 331.61602517 -407.0218719 287.01696074 -386.93554688 248.06054688 C-384.95968094 244.17231163 -383.32508969 240.38086783 -382.0625 236.1875 C-381.4025 236.1875 -380.7425 236.1875 -380.0625 236.1875 C-379.92908203 235.17816406 -379.92908203 235.17816406 -379.79296875 234.1484375 C-378.86568226 230.38970402 -377.20096229 227.19549992 -375.375 223.8125 C-374.98344727 223.08281006 -374.59189453 222.35312012 -374.18847656 221.60131836 C-364.97035467 204.67384663 -354.67223793 188.56598475 -343.0625 173.1875 C-342.61422852 172.58760254 -342.16595703 171.98770508 -341.70410156 171.36962891 C-332.77932906 159.43502585 -323.09845728 148.19467896 -313.0625 137.1875 C-312.21042969 136.23101562 -311.35835938 135.27453125 -310.48046875 134.2890625 C-304.52991413 127.64065643 -298.26824078 121.53580775 -291.6171875 115.59375 C-290.02700366 114.15539276 -288.46402198 112.69211069 -286.90625 111.21875 C-280.32647948 105.00886603 -273.53656696 99.26281207 -266.36328125 93.75 C-263.54368849 91.58095909 -260.83182041 89.3088872 -258.125 87 C-243.2425241 74.79154776 -226.90808748 64.44160154 -210.0625 55.1875 C-209.0415625 54.61902344 -208.020625 54.05054688 -206.96875 53.46484375 C-205.25444326 52.519454 -203.53471177 51.58380443 -201.80859375 50.66015625 C-199.6432005 49.49891407 -197.4938827 48.31693363 -195.34765625 47.12109375 C-194.02357505 46.39297897 -192.69935696 45.66511307 -191.375 44.9375 C-190.76881836 44.59565674 -190.16263672 44.25381348 -189.53808594 43.90161133 C-185.13585865 41.50522797 -180.96383429 40.24666375 -176.0625 39.1875 C-176.0625 38.5275 -176.0625 37.8675 -176.0625 37.1875 C-136.13204053 20.38250216 -95.33642526 8.28826454 -52.25 2.875 C-50.98269043 2.71555908 -49.71538086 2.55611816 -48.40966797 2.3918457 C-32.28385729 0.48423153 -16.22552517 -0.0186418 0 0 Z " fill="#0098EF" transform="translate(512.0625,86.8125)"/>
<path d="M0 0 C0.68829895 -0.00167175 1.3765979 -0.00334351 2.08575439 -0.00506592 C17.33208739 -0.00727713 32.38115819 1.24140557 47.24926758 4.74780273 C50.27382453 5.35519448 53.30093981 5.70253672 56.36328125 6.07421875 C63.53023134 7.06286317 70.20596703 9.03825036 77.01928711 11.39868164 C78.94265433 12.06428371 80.87181213 12.7102004 82.80273438 13.35351562 C89.43998057 15.59120972 95.86440133 18.08115227 102.19799805 21.07592773 C104.69776795 22.22597016 107.21788701 23.22493044 109.7890625 24.203125 C115.18478055 26.32903365 120.12209129 29.08267799 125.125 32 C126.04547119 32.53294678 126.96594238 33.06589355 127.91430664 33.61499023 C139.92752823 40.6229676 150.96222393 48.49160755 161.75 57.25 C162.28737793 57.68151367 162.82475586 58.11302734 163.37841797 58.55761719 C176.82390144 69.39180485 189.21826693 81.55277438 199.75 95.25 C200.54535156 96.24 201.34070313 97.23 202.16015625 98.25 C213.86721237 112.92078142 225.33246993 130.1120349 231.8046875 147.80859375 C232.89724978 150.63029385 234.2247706 153.28602019 235.5625 156 C242.75679332 171.70814296 246.52799172 188.01730411 249.625 204.9375 C249.77629364 205.7616037 249.92758728 206.5857074 250.08346558 207.43478394 C252.67186262 221.67655186 253.93676965 235.42509358 253.93530273 249.89916992 C253.93747394 252.28387739 253.95565056 254.66810915 253.97460938 257.05273438 C254.19660477 316.62201135 229.75722542 376.3014657 189.04907227 419.61010742 C185.81179955 423.05641023 182.75401304 426.59816502 179.75 430.25 C178 432.1875 178 432.1875 175.75 433.25 C173.90484619 433.14242554 173.90484619 433.14242554 171.71972656 432.82958984 C166.79331717 432.21166405 161.94482516 432.08166594 156.984375 432.0390625 C155.10415858 432.01095226 153.22395039 431.98228763 151.34375 431.953125 C148.44206358 431.91233824 145.54052341 431.87537342 142.63867188 431.84863281 C125.29421536 431.67578428 108.38036019 430.56725581 91.7734375 425.26171875 C87.44196965 424.0387026 83.03392433 423.6027222 78.57641602 423.0534668 C64.34893482 421.25466055 53.24336569 417.15512764 40.75 410.25 C31.72630922 405.26810699 24.03972777 401.71265581 13.75683594 400.3215332 C-5.49004364 397.66899778 -20.32762038 390.90969322 -34.25 377.25 C-35.20712891 376.32960938 -35.20712891 376.32960938 -36.18359375 375.390625 C-46.79639109 364.32873379 -48.89018606 354.17629059 -48.87084961 339.30883789 C-48.54667664 326.99897427 -45.12451548 315.8167884 -36.1875 307.0625 C-35.15496094 306.09570312 -35.15496094 306.09570312 -34.1015625 305.109375 C-32.41046661 303.41114369 -31.26587806 301.86704791 -30.0625 299.8125 C-28.25 297.25 -28.25 297.25 -25.5 296.375 C-24.38625 296.313125 -24.38625 296.313125 -23.25 296.25 C-25.42497954 293.74040822 -26.87708043 292.37430652 -30.0625 291.3125 C-32.936466 290.35451133 -34.40051635 289.52896886 -36.75 287.75 C-43.36690328 282.84161879 -49.83615363 282.61945052 -57.75 283.75 C-64.47629085 286.63269608 -68.64204348 292.40611993 -73.0625 298.0625 C-76.168629 302.01575509 -79.43328371 305.71403684 -82.9375 309.3125 C-83.82824219 310.23160156 -84.71898437 311.15070313 -85.63671875 312.09765625 C-88.36298489 314.34305632 -89.73219753 315.22708272 -93.25 315.25 C-95.07421875 314.10546875 -95.07421875 314.10546875 -96.9375 312.4375 C-101.56299521 309.06506536 -105.52199807 308.60654883 -111.0625 308.1875 C-121.73552283 307.32484528 -130.92418879 304.9575086 -138.375 296.74609375 C-143.37698163 290.08720571 -147.43407465 282.7273064 -150.375 274.9375 C-154.0491665 265.29281294 -158.85422506 259.65709663 -168.25 255.25 C-171.50625968 253.91952825 -174.78487116 252.67454085 -178.08203125 251.44921875 C-189.45078504 247.14563378 -198.92723983 240.93328443 -205.25 230.25 C-206.22165347 228.86968051 -207.20206758 227.49551644 -208.1875 226.125 C-211.77551623 221.02016146 -215.17152648 215.79907511 -218.5625 210.5625 C-224.68906181 201.10560015 -224.68906181 201.10560015 -230.875 191.6875 C-231.27630127 191.07495361 -231.67760254 190.46240723 -232.09106445 189.83129883 C-234.24828609 186.53558496 -234.24828609 186.53558496 -237.0859375 183.84765625 C-238.25 182.25 -238.25 182.25 -238.11328125 178.51953125 C-237.42125756 174.4188929 -236.06288607 170.76847323 -234.4375 166.9375 C-233.93605469 165.74511719 -233.43460937 164.55273438 -232.91796875 163.32421875 C-232.64984375 162.68718018 -232.38171875 162.0501416 -232.10546875 161.39379883 C-231.12229766 158.92997881 -230.25879637 156.43491659 -229.38671875 153.9296875 C-227.33962278 148.24754305 -224.72843948 143.00203103 -221.875 137.6875 C-221.41867187 136.81931641 -220.96234375 135.95113281 -220.4921875 135.05664062 C-215.76667969 126.14321788 -210.61875325 117.54421345 -204.875 109.25 C-204.39804687 108.56067383 -203.92109375 107.87134766 -203.4296875 107.16113281 C-188.69246175 86.03579509 -170.04422043 66.47444818 -149.25 51.25 C-148.15719886 50.42755246 -147.06475034 49.60463618 -145.97265625 48.78125 C-109.70206981 21.81149726 -66.94305669 5.43881528 -21.91796875 1.609375 C-18.52611203 1.38358819 -18.52611203 1.38358819 -16.41625977 0.74023438 C-11.10443033 -0.46185663 -5.4272616 0.00688556 0 0 Z " fill="#293C89" transform="translate(512.25,267.75)"/>
<path d="M0 0 C9.55254322 6.6330179 15.62668742 13.4178736 21.25 23.625 C21.85199219 24.68332031 22.45398438 25.74164063 23.07421875 26.83203125 C31.05729304 40.9395927 31.05729304 40.9395927 31.875 46.5 C32.535 46.5 33.195 46.5 33.875 46.5 C34.20113281 47.30824219 34.52726563 48.11648438 34.86328125 48.94921875 C35.51876953 50.55216797 35.51876953 50.55216797 36.1875 52.1875 C36.61675781 53.24324219 37.04601562 54.29898438 37.48828125 55.38671875 C38.78498068 58.46972483 38.78498068 58.46972483 40.421875 61.06640625 C41.92546837 63.58452095 42.86815866 65.97777049 43.8125 68.75 C45.31830714 73.02695032 47.0047763 77.1418891 48.875 81.26953125 C69.62895087 127.56057011 77.12300301 182.52921113 77.0625 232.875 C77.06159363 234.27161362 77.06159363 234.27161362 77.06066895 235.69644165 C77.03721297 249.03359317 76.78616148 262.25096913 75.22558594 275.51123047 C74.97539912 277.64409054 74.74077448 279.77879985 74.51660156 281.91455078 C70.97199391 315.64243961 64.50713825 351.3026416 50.875 382.5 C48.8486736 387.1992444 46.9006704 391.9149544 45.03515625 396.6796875 C37.56404849 414.84177438 28.81168901 432.56726689 18.875 449.5 C17.95267578 451.12615234 17.95267578 451.12615234 17.01171875 452.78515625 C13.82164335 458.38016655 10.43461534 463.71735263 6.6796875 468.94921875 C4.7372847 471.69464955 2.90060132 474.49629255 1.0625 477.3125 C-3.35311823 483.96582031 -8.18580298 490.23254871 -13.125 496.5 C-13.77082031 497.33015625 -14.41664063 498.1603125 -15.08203125 499.015625 C-28.89944455 516.58555686 -44.05106218 534.14147959 -61.05078125 548.703125 C-63.32657718 550.6746243 -65.53422667 552.71134395 -67.75 554.75 C-73.95087543 560.33645942 -80.50482346 565.42566008 -87.125 570.5 C-87.77307617 570.99967285 -88.42115234 571.4993457 -89.08886719 572.01416016 C-97.16693251 578.22972777 -105.34579649 584.11718071 -113.98828125 589.5234375 C-117.47995327 591.72366918 -120.87785673 594.0389658 -124.2578125 596.40625 C-126.125 597.5 -126.125 597.5 -128.3046875 597.96875 C-128.90539062 598.1440625 -129.50609375 598.319375 -130.125 598.5 C-130.455 599.49 -130.785 600.48 -131.125 601.5 C-133.34007938 602.79902304 -135.49449762 603.9139936 -137.8125 605 C-139.28558615 605.71004631 -140.75821829 606.42103505 -142.23046875 607.1328125 C-143.420354 607.70370605 -143.420354 607.70370605 -144.63427734 608.28613281 C-147.18698964 609.53021099 -149.71390276 610.81664904 -152.23828125 612.1171875 C-162.11333856 617.18774708 -172.06964409 621.90162468 -182.3125 626.1875 C-183.34632813 626.62175293 -184.38015625 627.05600586 -185.4453125 627.50341797 C-192.73793353 630.5 -192.73793353 630.5 -196.125 630.5 C-196.125 631.16 -196.125 631.82 -196.125 632.5 C-197.01960938 632.74234375 -197.91421875 632.9846875 -198.8359375 633.234375 C-200.04507812 633.56953125 -201.25421875 633.9046875 -202.5 634.25 C-203.68335938 634.57484375 -204.86671875 634.8996875 -206.0859375 635.234375 C-209.08609405 636.12006751 -211.94432638 637.21036641 -214.8359375 638.40234375 C-245.0774234 650.7085269 -279.77874886 655.7326903 -312.125 658.5 C-312.89489258 658.56912598 -313.66478516 658.63825195 -314.45800781 658.70947266 C-372.90723132 663.68303703 -432.05258352 655.24552856 -487.5625 636.875 C-488.27913818 636.63916199 -488.99577637 636.40332397 -489.73413086 636.16033936 C-497.13230718 633.71490905 -504.22298848 631.16099807 -511.125 627.5 C-513.11023412 626.71174528 -515.10891767 625.95562882 -517.125 625.25 C-518.07375 624.91484375 -519.0225 624.5796875 -520 624.234375 C-520.70125 623.99203125 -521.4025 623.7496875 -522.125 623.5 C-522.125 622.84 -522.125 622.18 -522.125 621.5 C-524.0121875 620.9121875 -524.0121875 620.9121875 -525.9375 620.3125 C-535.52886984 617.09542587 -544.44989085 612.46215003 -553.26074219 607.53173828 C-554.57302543 606.8054799 -555.89207594 606.09138248 -557.21582031 605.38623047 C-570.98613774 598.04838251 -580.9443837 590.17943157 -585.69921875 574.62109375 C-587.64777789 564.91405142 -586.35501151 554.29038582 -581.08154297 545.82495117 C-576.49907555 539.33383081 -570.8033715 533.77135772 -565.2109375 528.16040039 C-563.48449415 526.42188573 -561.77759522 524.66551343 -560.0703125 522.90820312 C-558.97250133 521.80094478 -557.87358275 520.69478304 -556.7734375 519.58984375 C-556.26606049 519.06293442 -555.75868347 518.53602509 -555.2359314 517.9931488 C-553.77880859 516.55444336 -553.77880859 516.55444336 -551.125 514.5 C-548.61258931 514.63462293 -547.35677661 515.3841117 -545.125 516.5 C-543.34819327 516.64128517 -541.56671327 516.72594863 -539.78515625 516.78125 C-538.1909082 516.83732422 -538.1909082 516.83732422 -536.56445312 516.89453125 C-534.89286133 516.94673828 -534.89286133 516.94673828 -533.1875 517 C-530.99075411 517.06884752 -528.79412579 517.14158753 -526.59765625 517.21875 C-525.13211304 517.26418945 -525.13211304 517.26418945 -523.63696289 517.31054688 C-521.125 517.5 -521.125 517.5 -518.125 518.5 C-512.03849981 518.84068677 -507.00911219 517.96862579 -501.1875 516.25 C-500.39480713 516.02038574 -499.60211426 515.79077148 -498.78540039 515.55419922 C-490.07649251 512.97371565 -483.51727898 510.03346265 -476.46875 504.23828125 C-473.26057765 501.85888676 -469.83082089 500.25814262 -466.19140625 498.640625 C-463.817112 497.5369175 -463.817112 497.5369175 -462.125 494.5 C-461.7782075 492.22518988 -461.7782075 492.22518988 -461.6875 489.75 C-461.31616683 485.06019956 -460.22072614 481.69145227 -458.125 477.5 C-454.70515502 478.10263419 -451.65205696 478.96993562 -448.4375 480.27734375 C-447.14199219 480.80038086 -447.14199219 480.80038086 -445.8203125 481.33398438 C-444.93085938 481.69814453 -444.04140625 482.06230469 -443.125 482.4375 C-442.23554688 482.79779297 -441.34609375 483.15808594 -440.4296875 483.52929688 C-438.76872467 484.20235868 -437.10847991 484.8771974 -435.44921875 485.55444336 C-434.68222656 485.86647705 -433.91523438 486.17851074 -433.125 486.5 C-432.30169189 486.8498999 -431.47838379 487.1997998 -430.63012695 487.56030273 C-428.18495409 488.47751064 -425.92433087 489.00248636 -423.35546875 489.4453125 C-419.33005241 490.20717879 -415.58278978 491.27506216 -411.71508789 492.60693359 C-371.85960371 506.04731876 -314.72191131 505.67746833 -275.1015625 491.52734375 C-271.88872363 490.41845054 -268.65439074 489.51702389 -265.375 488.625 C-253.15773742 485.15739412 -241.88710652 480.6701359 -230.7890625 474.5078125 C-227.20864687 472.52038648 -223.55842116 470.72704884 -219.875 468.9375 C-213.65660553 465.83872465 -207.86655743 462.4066267 -202.125 458.5 C-201.49722656 458.07589844 -200.86945313 457.65179687 -200.22265625 457.21484375 C-190.52535276 450.63387598 -181.3862 443.66132546 -172.64599609 435.85351562 C-171.26239876 434.62226946 -169.86064298 433.41150523 -168.45703125 432.203125 C-148.85095618 415.12183861 -133.35046604 393.74546591 -120.125 371.5 C-119.5784375 370.64535156 -119.031875 369.79070312 -118.46875 368.91015625 C-105.52991978 348.12868601 -97.62176518 324.22159551 -92.125 300.5 C-91.82464844 299.21738281 -91.52429688 297.93476562 -91.21484375 296.61328125 C-90.50922267 293.57746965 -89.81213235 290.5400401 -89.125 287.5 C-84.33470059 287.31575772 -80.03160488 287.62631957 -75.3125 288.5 C-69.62827566 289.51117078 -63.88922255 290.20245006 -58.125 289.5 C-55.21278299 286.58778299 -55.43836383 283.3028988 -55.0625 279.375 C-54.98016113 278.56893311 -54.89782227 277.76286621 -54.81298828 276.93237305 C-52.91527208 257.76168152 -52.8976549 238.96737227 -54.24194336 219.76586914 C-54.43740084 216.93893421 -54.61647033 214.11125621 -54.79492188 211.28320312 C-55.47446512 201.08888278 -56.5790196 191.41960241 -59.125 181.5 C-59.35388916 180.56389893 -59.58277832 179.62779785 -59.81860352 178.66333008 C-60.43867097 176.16442373 -61.08762859 173.67548151 -61.75 171.1875 C-62.07484375 169.93549805 -62.07484375 169.93549805 -62.40625 168.65820312 C-63.15367655 164.76742212 -63.15367655 164.76742212 -65.125 161.5 C-65.35306417 160.02374679 -65.55612291 158.54363081 -65.75 157.0625 C-67.11364174 149.14924564 -70.26994745 141.92559161 -73.29833984 134.53222656 C-74.33945493 131.97279303 -75.32248826 129.3920525 -76.3125 126.8125 C-77.42747094 124.02507265 -78.65769942 121.45725738 -80.1875 118.875 C-81.65280946 116.32252546 -82.62138374 114.28539256 -83.5625 111.5625 C-84.88030463 107.84543151 -86.72589964 104.77848423 -88.87890625 101.48828125 C-90.06511283 99.59555664 -91.04314846 97.70386955 -92 95.6875 C-96.05246957 87.37013302 -101.43766616 79.77062092 -107.125 72.5 C-105.77441886 69.48611927 -104.26895225 67.3965323 -101.9296875 65.07421875 C-101.29546875 64.44193359 -100.66125 63.80964844 -100.0078125 63.15820312 C-99.34523438 62.50787109 -98.68265625 61.85753906 -98 61.1875 C-97.360625 60.54876953 -96.72125 59.91003906 -96.0625 59.25195312 C-92.9607222 56.17820344 -89.80996599 53.22498645 -86.49462891 50.3828125 C-81.48487206 46.0178154 -76.86755106 41.29375903 -72.21875 36.55078125 C-70.80655934 35.12193159 -69.3943562 33.69309402 -67.98143768 32.2649641 C-64.53411291 28.77982956 -61.09146 25.29021045 -57.66064453 21.78881836 C-55.72324041 19.81211972 -53.7805071 17.8409569 -51.83166504 15.87553406 C-50.00698556 14.0349967 -48.19007121 12.18671822 -46.38220215 10.32966614 C-41.57257474 5.49969388 -37.43418725 2.11885083 -31.125 -0.5 C-30.15949219 -0.9021875 -29.19398438 -1.304375 -28.19921875 -1.71875 C-19.38609611 -3.95842538 -8.16313222 -4.26103923 0 0 Z " fill="#0098F0" transform="translate(860.125,277.5)"/>
<path d="M0 0 C10.80584225 6.45882195 10.80584225 6.45882195 13 12 C13.66 12 14.32 12 15 12 C16.04500476 13.63882361 17.0369474 15.31171464 18 17 C19.17182283 18.61565411 20.3605648 20.21912035 21.5625 21.8125 C24.88586074 26.33883227 27.92685397 30.97200997 30.875 35.75 C37.47104143 46.43653069 44.1768937 57.15875904 52 67 C52.45503906 67.60070312 52.91007812 68.20140625 53.37890625 68.8203125 C60.00730632 77.16451095 68.61480415 80.82893483 78.33203125 84.55859375 C91.01898957 89.54420357 97.69932531 94.74784464 104 107 C104.6966106 108.67536097 105.36619678 110.36238407 106 112.0625 C110.10236433 122.87466362 116.72286073 132.30617726 127.375 137.3125 C132.92455125 139.36884535 138.59765934 139.59883505 144.44555664 140.06494141 C150.12785026 140.62342423 153.83320951 141.96809321 158.17578125 145.85546875 C159.97100326 147.19975236 159.97100326 147.19975236 162.3359375 147.046875 C166.18048757 145.53611339 168.4905124 143.01756099 171.3125 140.0625 C171.88500488 139.47710449 172.45750977 138.89170898 173.04736328 138.28857422 C177.05229954 134.13894933 180.69708865 129.78583962 184.234375 125.23046875 C191.04801316 116.62297452 191.04801316 116.62297452 195.9375 115.0625 C196.948125 115.041875 197.95875 115.02125 199 115 C200.258125 114.896875 201.51625 114.79375 202.8125 114.6875 C208.824332 114.76811844 214.02051212 117.39755743 218.625 121.125 C221.01305757 123.26258032 221.01305757 123.26258032 224.6875 124 C228 125 228 125 229.4375 127.125 C229.623125 127.74375 229.80875 128.3625 230 129 C229.29875 129.165 228.5975 129.33 227.875 129.5 C224.30695798 131.36158714 222.87754691 133.54744568 220.60546875 136.80078125 C219.01520509 138.97917162 217.29386429 140.85949201 215.4375 142.8125 C204.83954511 154.70288841 204.97910635 169.96400874 205.70068359 185.01660156 C206.97381544 197.70638225 216.93210276 207.89704617 226.203125 215.90234375 C228.08877211 217.36112193 230.01638845 218.67879624 232 220 C232.59377441 220.40798828 233.18754883 220.81597656 233.79931641 221.23632812 C238.73293712 224.49698764 243.51624642 226.44967876 249.1875 228.0625 C250.04899658 228.31797607 250.91049316 228.57345215 251.7980957 228.83666992 C257.17602001 230.37467755 262.51869866 231.49134974 268.03735352 232.38354492 C279.51100482 234.24068037 288.03555342 238.18118691 298 244 C310.03625875 250.92706307 321.22011307 253.34749655 334.9609375 255.13671875 C339.60894091 255.75346484 343.85002333 256.64068464 348.3125 258.0625 C364.58418004 263.21033631 381.83746517 263.45138522 398.75 263.5625 C401.6549553 263.58649788 404.55962878 263.61477025 407.4644165 263.65428162 C409.24633887 263.678164 411.02840909 263.69340512 412.81048584 263.69789124 C418.43125972 263.76836515 423.56420968 264.57318413 429 266 C429 266.66 429 267.32 429 268 C427.63671875 269.19140625 427.63671875 269.19140625 425.6875 270.5625 C422.30480323 273.0091791 419.07641269 275.57029901 415.875 278.25 C393.01485825 296.98218181 367.48706741 310.45977842 340 321 C339.3611084 321.25434814 338.7222168 321.50869629 338.06396484 321.77075195 C322.88161615 327.70953282 306.68139451 331.59032375 290.43554688 332.76123047 C287.3089092 333.06775128 284.22013802 333.56148058 281.11328125 334.02734375 C272.35311432 335.21576166 263.7039016 335.31221998 254.875 335.25 C254.06196411 335.24623352 253.24892822 335.24246704 252.41125488 335.23858643 C231.76273467 335.12665797 212.99564933 333.01569143 192.96191406 327.7644043 C190.94286497 327.24333253 188.91837471 326.74300787 186.88964844 326.26098633 C180.79728267 324.80994273 175.11193544 323.06858062 169.375 320.5625 C167.90517109 319.93697533 166.43512043 319.31197147 164.96484375 318.6875 C164.27632324 318.39230469 163.58780273 318.09710937 162.87841797 317.79296875 C160.58581777 316.82515416 158.26529333 315.94180136 155.9375 315.0625 C145.8762743 311.05871893 136.00665389 306.00443593 127 300 C127.42152344 300.76183594 127.84304688 301.52367187 128.27734375 302.30859375 C131.65629543 308.67692387 134 313.73701629 134 321 C133.34 321.99 132.68 322.98 132 324 C132.08055587 325.56389504 132.18752411 327.1265266 132.3125 328.6875 C132.125 331.3671875 132.125 331.3671875 131 334 C127.4206454 336.53537617 123.81631675 338.32234271 119.83203125 340.11328125 C116.99089696 341.39708681 115.45755274 342.47083004 113.01171875 344.59375 C109.3905491 347.48692834 106.45764203 348.27837564 102 349.1875 C96.27951305 350.45054855 96.27951305 350.45054855 90.66796875 352.12890625 C87.59679022 353.13164829 86.04625292 352.98797392 83 352 C82.01 351.34 81.02 350.68 80 350 C77.4745777 349.9744911 77.4745777 349.9744911 74.8125 350.375 C73.91144531 350.48585938 73.01039063 350.59671875 72.08203125 350.7109375 C71.05142578 350.85402344 71.05142578 350.85402344 70 351 C69.67 350.34 69.34 349.68 69 349 C66.24358584 349.49756092 66.24358584 349.49756092 64 351 C61.0625 351.25 61.0625 351.25 58 351 C55.87491756 347.81237635 55.4979837 345.73487777 55 342 C54.01 342.33 53.02 342.66 52 343 C49.27668512 343.23188622 46.74960731 343.13093368 44 343 C41.8614515 340.8614515 41.57344937 339.86724686 41 337 C38.36 337 35.72 337 33 337 C30.58314288 332.77050005 29.65166856 329.87664009 30 325 C29.278125 325.66 28.55625 326.32 27.8125 327 C24.7845747 329.15319133 23.60748837 329.50104005 20 329 C19 328 19 328 18.90234375 325.27734375 C18.91394531 324.17519531 18.92554688 323.07304688 18.9375 321.9375 C18.94652344 320.83277344 18.95554687 319.72804688 18.96484375 318.58984375 C18.97644531 317.73519531 18.98804688 316.88054687 19 316 C16.36 316 13.72 316 11 316 C9.16010536 312.32021073 10.1877835 307.37396546 10.47851562 303.296875 C10.55027863 301.05476598 10.54457328 299.17857514 10 297 C7.22579914 294.46059642 7.22579914 294.46059642 4 293 C2.0625 291.5625 2.0625 291.5625 1 290 C1.26102415 286.51967799 2.03397532 284.94903702 4 282 C3.69154897 278.62672704 2.47347806 277.24730788 -0.0625 275.125 C-2.4940248 272.81622044 -2.95209036 272.27148798 -3.5625 268.8125 C-2.9341918 265.670959 -2.22121569 265.12866503 0 263 C0.58333333 260.5 0.58333333 260.5 0 258 C-1.9004467 256.15684329 -1.9004467 256.15684329 -4 255 C-3.67 254.01 -3.34 253.02 -3 252 C-2.34 251.67 -1.68 251.34 -1 251 C-1 246.71 -1 242.42 -1 238 C3.0188515 236.18757677 6.61110675 234.66498383 11 234 C10.525625 233.236875 10.05125 232.47375 9.5625 231.6875 C8 229 8 229 7 226 C21.1312764 225.72411825 34.9491657 226.48447685 49 228 C46.96500829 224.52539044 44.92002372 221.05688073 42.8659668 217.59350586 C42.16989658 216.4167197 41.47648439 215.2383568 40.78588867 214.05834961 C39.78760173 212.35369357 38.77864704 210.65529929 37.76953125 208.95703125 C37.16729736 207.93585205 36.56506348 206.91467285 35.94458008 205.86254883 C33.90485507 202.85994045 31.58382156 200.53586705 29 198 C28.1875 195.6875 28.1875 195.6875 28 194 C25.69 194 23.38 194 21 194 C20.773125 192.88625 20.54625 191.7725 20.3125 190.625 C19.40870037 186.85619103 19.40870037 186.85619103 16.5 185.6875 C15.2625 185.3471875 15.2625 185.3471875 14 185 C11.60236815 182.60236815 11.65719414 181.66726502 11.375 178.375 C11.30023438 177.55773437 11.22546875 176.74046875 11.1484375 175.8984375 C11.09945312 175.27195312 11.05046875 174.64546875 11 174 C8.69 173.34 6.38 172.68 4 172 C4.53980347 168.60694964 5.16550811 165.33796756 6 162 C2.04 159.525 2.04 159.525 -2 157 C-1.67 153.7 -1.34 150.4 -1 147 C-4.3 146.34 -7.6 145.68 -11 145 C-11.80244265 140.98778676 -12.07611488 139.01107745 -11.5625 135.1875 C-11.46066406 134.39730469 -11.35882813 133.60710937 -11.25390625 132.79296875 C-11.17011719 132.20128906 -11.08632812 131.60960937 -11 131 C-14.61223321 128.56384272 -18.24436571 126.20919664 -22 124 C-21.36835891 119.32585596 -21.36835891 119.32585596 -19.375 117.5625 C-17.70542721 115.99430576 -17.70542721 115.99430576 -17.875 113.1875 C-19.24217233 109.31384507 -21.02426719 107.85572555 -24.2109375 105.39453125 C-25.96713868 104.02561461 -27.52757287 102.67115963 -29 101 C-29 99.0625 -29 99.0625 -28 97 C-25.4375 94.75 -25.4375 94.75 -23 93 C-23.28419541 89.02126427 -23.96172827 86.76697373 -26.625 83.875 C-29 81 -29 81 -28.875 78.6875 C-28 77 -28 77 -27 76 C-26.60062939 70.10928345 -27.26348269 67.27032963 -30 62 C-32.97341614 53.28969277 -33.50079837 44.70648756 -33.44604492 35.59985352 C-33.43749429 33.43605433 -33.46647838 31.27487139 -33.49804688 29.11132812 C-33.55374338 18.19379969 -32.09406006 8.71051784 -24.5625 0.33984375 C-17.5980242 -5.63219424 -7.78232741 -3.18654758 0 0 Z " fill="#F7B558" transform="translate(259,435)"/>
<path d="M0 0 C2.61724224 0.36099893 3.7510766 0.72067374 5.53515625 2.72265625 C7.12587239 5.19568961 7.86354231 7.35504473 8.625 10.1875 C9.30570702 13.37327617 9.30570702 13.37327617 11 16 C12.34747084 16.23075082 13.70377565 16.41153063 15.0625 16.5625 C16.361875 16.706875 17.66125 16.85125 19 17 C19.309375 18.27875 19.61875 19.5575 19.9375 20.875 C20.66055357 23.13383948 20.66055357 23.13383948 22 25 C24.30378213 25.85519185 26.44155033 26.12551927 28.875 26.4375 C31 27 31 27 32.9375 30.125 C33.9584375 31.548125 33.9584375 31.548125 35 33 C37.59468494 33.24436245 40.03861982 33.0556221 42.63671875 32.87890625 C43.41660156 32.91886719 44.19648438 32.95882812 45 33 C45.7425 33.825 46.485 34.65 47.25 35.5 C51.44698654 39.3154423 55.64066973 38.37263778 61.11328125 38.17578125 C62.06589844 38.11777344 63.01851563 38.05976562 64 38 C63.67 39.98 63.34 41.96 63 44 C66.93743833 44.05797565 70.87476719 44.09358789 74.8125 44.125 C75.93205078 44.14175781 77.05160156 44.15851562 78.20507812 44.17578125 C79.81479492 44.18544922 79.81479492 44.18544922 81.45703125 44.1953125 C82.44678955 44.20578613 83.43654785 44.21625977 84.45629883 44.22705078 C87.2443952 44.18267404 87.2443952 44.18267404 90 42 C92.59375 41.6640625 92.59375 41.6640625 95.5 41.625 C96.4590625 41.59664062 97.418125 41.56828125 98.40625 41.5390625 C101 42 101 42 102.65234375 44 C103.09707031 44.66 103.54179687 45.32 104 46 C107.04230823 46.50010524 107.04230823 46.50010524 110 46 C110.99 45.01 110.99 45.01 112 44 C116.69416724 43.40668518 121.09762559 43.73551095 125.625 45.0625 C129.35224817 46.10039942 132.45869415 45.90738381 136.3046875 45.5625 C144.50206887 44.94042338 152.68867557 44.89817537 160.90625 44.90234375 C161.90743425 44.90276767 161.90743425 44.90276767 162.92884445 44.90320015 C167.07789058 44.90670942 171.22689095 44.91799376 175.37591553 44.93133545 C178.94982303 44.9417077 182.52373792 44.94616236 186.09765625 44.95117188 C193.0651219 44.96178162 200.03255881 44.9787672 207 45 C206.814375 44.030625 206.62875 43.06125 206.4375 42.0625 C206.2209375 40.5465625 206.2209375 40.5465625 206 39 C207.65079442 37.34920558 209.63736179 37.77450553 211.91015625 37.68359375 C212.89951172 37.64169922 213.88886719 37.59980469 214.90820312 37.55664062 C216.46958008 37.49766602 216.46958008 37.49766602 218.0625 37.4375 C219.10728516 37.39431641 220.15207031 37.35113281 221.22851562 37.30664062 C223.81886884 37.20018775 226.40932186 37.0981724 229 37 C228.67 35.02 228.34 33.04 228 31 C230.64458379 29.67770811 232.67761301 29.90322806 235.625 29.9375 C237.12933594 29.95103516 237.12933594 29.95103516 238.6640625 29.96484375 C239.82035156 29.98224609 239.82035156 29.98224609 241 30 C241 28.68 241 27.36 241 26 C241.57443848 25.9906543 242.14887695 25.98130859 242.74072266 25.97167969 C245.36965304 25.91764969 247.99686567 25.83407106 250.625 25.75 C251.98044922 25.72873047 251.98044922 25.72873047 253.36328125 25.70703125 C259.17228764 25.49502372 262.2535001 24.58578377 267 21 C269.73828125 20.20703125 269.73828125 20.20703125 272.3125 19.8125 C275.45422855 19.52470619 275.45422855 19.52470619 278 18 C280.69235776 17.76321284 283.36498156 17.57801975 286.0625 17.4375 C286.82111328 17.39431641 287.57972656 17.35113281 288.36132812 17.30664062 C290.24065438 17.20026367 292.12030244 17.09960066 294 17 C289.52553928 22.56751879 284.70961994 26.69665254 279 31 C277.99066406 31.763125 276.98132813 32.52625 275.94140625 33.3125 C255.30803318 48.61003009 232.8958998 59.83685157 209 69 C208.0416626 69.38152222 208.0416626 69.38152222 207.06396484 69.77075195 C191.88161615 75.70953282 175.68139451 79.59032375 159.43554688 80.76123047 C156.3089092 81.06775128 153.22013802 81.56148058 150.11328125 82.02734375 C141.35311432 83.21576166 132.7039016 83.31221998 123.875 83.25 C123.06196411 83.24623352 122.24892822 83.24246704 121.41125488 83.23858643 C100.76273467 83.12665797 81.99564933 81.01569143 61.96191406 75.7644043 C59.94286497 75.24333253 57.91837471 74.74300787 55.88964844 74.26098633 C49.79728267 72.80994273 44.11193544 71.06858062 38.375 68.5625 C36.90517109 67.93697533 35.43512043 67.31197147 33.96484375 66.6875 C33.27632324 66.39230469 32.58780273 66.09710937 31.87841797 65.79296875 C29.58581777 64.82515416 27.26529333 63.94180136 24.9375 63.0625 C-2.54688571 52.0969831 -2.54688571 52.0969831 -6.0769043 44.76245117 C-9.96725545 33.12020751 -8.47031038 16.23659547 -3.2890625 5.22265625 C-2.25690137 3.44296024 -1.14121049 1.71181573 0 0 Z " fill="#2B3D89" transform="translate(390,687)"/>
<path d="M0 0 C4.62 0 9.24 0 14 0 C16.83191625 6.68646893 19.54049549 13.36927483 21.9921875 20.203125 C25.86113695 30.94020952 30.23815153 41.44701383 34.69775391 51.94995117 C35.12362793 52.96033447 35.54950195 53.97071777 35.98828125 55.01171875 C36.56896362 56.38009888 36.56896362 56.38009888 37.16137695 57.77612305 C38 60 38 60 38 62 C38.66 62 39.32 62 40 62 C40 62.99 40 63.98 40 65 C33.07 65 26.14 65 19 65 C19.33 63.68 19.66 62.36 20 61 C20.99 61 21.98 61 23 61 C22.65066406 59.96359375 22.30132813 58.9271875 21.94140625 57.859375 C21.48169068 56.48961023 21.0220597 55.11981707 20.5625 53.75 C20.33240234 53.06808594 20.10230469 52.38617188 19.86523438 51.68359375 C18.78823044 48.4681907 17.82314853 45.29259413 17 42 C9.08 42 1.16 42 -7 42 C-7.66 44.97 -8.32 47.94 -9 51 C-10.25 55.9375 -10.25 55.9375 -10.828125 58.15234375 C-10.88484375 58.76207031 -10.9415625 59.37179687 -11 60 C-10.34 60.66 -9.68 61.32 -9 62 C-9 62.99 -9 63.98 -9 65 C-14.61 65 -20.22 65 -26 65 C-26 64.01 -26 63.02 -26 62 C-25.40960937 61.45859375 -24.81921875 60.9171875 -24.2109375 60.359375 C-21.11640855 57.05708616 -20.07258349 53.48424479 -18.625 49.25 C-18.01085161 47.52067881 -17.39626199 45.79151425 -16.78125 44.0625 C-16.47960937 43.20269531 -16.17796875 42.34289062 -15.8671875 41.45703125 C-14.66082417 38.03900182 -13.40098168 34.64254739 -12.125 31.25 C-11.77791992 30.3233252 -11.77791992 30.3233252 -11.42382812 29.37792969 C-7.72223909 19.54466332 -3.84600748 9.77740569 0 0 Z " fill="#F0B159" transform="translate(678,435)"/>
<path d="M0 0 C7.59 0 15.18 0 23 0 C23 1.32 23 2.64 23 4 C22.34 4 21.68 4 21 4 C22.81978862 9.66156461 25.02382277 13.73226041 28.79296875 18.3359375 C30 20 30 20 30 22 C30.66 22 31.32 22 32 22 C32.26683594 21.443125 32.53367187 20.88625 32.80859375 20.3125 C34.565659 16.90206515 36.6313329 13.69155408 38.66015625 10.4375 C39.86948024 8.23744703 40.54059833 6.45014222 41 4 C40.01 4 39.02 4 38 4 C38 2.68 38 1.36 38 0 C44.93 0 51.86 0 59 0 C59 1.32 59 2.64 59 4 C58.30003906 4.41636719 57.60007812 4.83273437 56.87890625 5.26171875 C52.84499453 7.69739136 50.66411119 11.02954132 47.9375 14.8125 C47.42123047 15.51181641 46.90496094 16.21113281 46.37304688 16.93164062 C43.4702346 20.88464231 40.68599624 24.89693141 38 29 C41.69956451 36.73870258 46.80173964 43.80068219 51.625 50.875 C52.33914063 51.92429687 53.05328125 52.97359375 53.7890625 54.0546875 C55.94677814 57.08770751 55.94677814 57.08770751 58.7734375 59.6953125 C61 62 61 62 61 65 C53.74 65 46.48 65 39 65 C39 64.01 39 63.02 39 62 C39.66 62 40.32 62 41 62 C39.85131618 56.12894937 37.29577952 52.21848375 33.75390625 47.4296875 C32 45 32 45 30.40234375 42.2578125 C29.19958025 39.88152316 29.19958025 39.88152316 27 39 C26.75121094 39.53882813 26.50242187 40.07765625 26.24609375 40.6328125 C24.1528851 44.60925276 21.5073716 48.22473909 18.97265625 51.9296875 C17.0809665 54.87398085 15.50321652 57.84277408 14 61 C15.32 61.33 16.64 61.66 18 62 C18 62.99 18 63.98 18 65 C11.07 65 4.14 65 -3 65 C-2 61 -2 61 0.15625 59.3359375 C4.18181012 56.0292274 6.65615405 51.95345231 9.5 47.625 C13.10949943 42.18143937 16.70087861 36.9247398 21 32 C19.68200068 27.78240219 17.45297338 24.81857103 14.77734375 21.390625 C11.97314336 17.61882139 9.52063709 13.61884984 7.02734375 9.63671875 C5.15539765 6.85949153 5.15539765 6.85949153 2.25390625 5.39453125 C1.51011719 4.93433594 0.76632812 4.47414063 0 4 C0 2.68 0 1.36 0 0 Z " fill="#EFB159" transform="translate(350,435)"/>
<path d="M0 0 C5.26211265 -1.52771012 9.87692681 -2.06565718 15 0 C22.92803366 5.89574174 29.48205792 13.63679165 36 21 C36 15.39 36 9.78 36 4 C35.34 3.67 34.68 3.34 34 3 C34 2.01 34 1.02 34 0 C38.62 0 43.24 0 48 0 C48 0.99 48 1.98 48 3 C47.34 3.33 46.68 3.66 46 4 C45.95055927 10.19302201 45.91426095 16.38592909 45.89013672 22.57910156 C45.88007966 24.68589275 45.86643232 26.79266999 45.84912109 28.89941406 C45.82486 31.92776941 45.81351392 34.95594019 45.8046875 37.984375 C45.79436493 38.92617615 45.78404236 39.86797729 45.77340698 40.83831787 C45.77325592 41.71892883 45.77310486 42.59953979 45.77294922 43.50683594 C45.76628738 44.66599518 45.76628738 44.66599518 45.75949097 45.84857178 C45.92145094 48.41802803 45.92145094 48.41802803 48 52 C43.38 52 38.76 52 34 52 C34 51.01 34 50.02 34 49 C34.66 48.67 35.32 48.34 36 48 C36.94911418 43.33668569 37.56250488 38.55915978 34.97460938 34.32055664 C31.57454787 30.05347946 27.51612068 26.42326796 23.5 22.75 C22.29284658 21.60312323 21.08838807 20.45340285 19.88671875 19.30078125 C16.95457857 16.5000463 13.98847395 13.7404942 11 11 C10.95052047 16.19611221 10.91424273 21.39208691 10.89013672 26.58837891 C10.88008616 28.35565582 10.86644358 30.12291613 10.84912109 31.89013672 C10.82483115 34.43200785 10.81350745 36.97365889 10.8046875 39.515625 C10.79436493 40.30430969 10.78404236 41.09299438 10.77340698 41.90557861 C10.77255513 46.08114363 11.08434908 48.16869816 13 52 C8.71 52 4.42 52 0 52 C0.66 50.68 1.32 49.36 2 48 C2.29882414 45.85061302 2.29882414 45.85061302 2.25878906 43.5703125 C2.26509338 42.7026123 2.27139771 41.83491211 2.27789307 40.94091797 C2.2738446 40.01166504 2.26979614 39.08241211 2.265625 38.125 C2.26753845 37.16352051 2.2694519 36.20204102 2.27142334 35.21142578 C2.27278301 33.1806614 2.26910182 31.14988826 2.26074219 29.11914062 C2.25003967 26.01152006 2.26064496 22.90447759 2.2734375 19.796875 C2.27211587 17.82291539 2.26955339 15.84895614 2.265625 13.875 C2.26967346 12.94574707 2.27372192 12.01649414 2.27789307 11.05908203 C2.27158875 10.19138184 2.26528442 9.32368164 2.25878906 8.4296875 C2.25719788 7.66897949 2.25560669 6.90827148 2.25396729 6.12451172 C1.96696356 3.72364033 1.1918053 2.08741531 0 0 Z " fill="#F1B159" transform="translate(575,448)"/>
<path d="M0 0 C5.28 0 10.56 0 16 0 C16 0.99 16 1.98 16 3 C15.2575 3.5775 14.515 4.155 13.75 4.75 C7.94760191 9.49741662 5.90184886 15.77407519 5 23 C4.28712366 32.01653457 4.28712366 32.01653457 8 40 C13.76386208 45.17269674 17.40245488 44.56707581 26 46 C25.505 25.21 25.505 25.21 25 4 C24.34 3.67 23.68 3.34 23 3 C23 2.01 23 1.02 23 0 C28.28 0 33.56 0 39 0 C39 0.99 39 1.98 39 3 C38.34 3.33 37.68 3.66 37 4 C36.95055927 10.19302201 36.91426095 16.38592909 36.89013672 22.57910156 C36.88007966 24.68589275 36.86643232 26.79266999 36.84912109 28.89941406 C36.82486 31.92776941 36.81351392 34.95594019 36.8046875 37.984375 C36.79436493 38.92617615 36.78404236 39.86797729 36.77340698 40.83831787 C36.77325592 41.71892883 36.77310486 42.59953979 36.77294922 43.50683594 C36.76628738 44.66599518 36.76628738 44.66599518 36.75949097 45.84857178 C37.03038648 48.27181653 37.79451907 49.89773202 39 52 C34.87417603 52.09969463 30.74882903 52.17185233 26.62207031 52.21972656 C25.22155527 52.2397063 23.82112218 52.2669002 22.42089844 52.30175781 C7.76590479 52.65715709 7.76590479 52.65715709 1 48 C-1.05859375 46 -1.05859375 46 -2.4375 44 C-2.91058594 43.34 -3.38367188 42.68 -3.87109375 42 C-7.52557226 35.52562977 -7.05993889 26.16486856 -5.28125 19.17578125 C-3.0793922 13.52020295 -0.07737664 8.22145053 3 3 C2.01 3 1.02 3 0 3 C0 2.01 0 1.02 0 0 Z " fill="#F2B259" transform="translate(422,448)"/>
<path d="M0 0 C13.2 0 26.4 0 40 0 C40 3.3 40 6.6 40 10 C38.68 9.67 37.36 9.34 36 9 C35.505 8.01 35.505 8.01 35 7 C27.74 6.67 20.48 6.34 13 6 C13 10.62 13 15.24 13 20 C15.62664903 19.9132428 18.24978082 19.80642019 20.875 19.6875 C21.62136719 19.66494141 22.36773438 19.64238281 23.13671875 19.61914062 C25.099604 19.52188055 27.05328322 19.26957706 29 19 C29.66 18.01 30.32 17.02 31 16 C32.32 16 33.64 16 35 16 C35 20.62 35 25.24 35 30 C33.68 30 32.36 30 31 30 C30.34 29.01 29.68 28.02 29 27 C26.21101681 26.61378774 23.67080331 26.39768076 20.875 26.3125 C18.27625 26.209375 15.6775 26.10625 13 26 C13 32.6 13 39.2 13 46 C16.43778631 45.85937689 19.87513171 45.71273071 23.3125 45.5625 C24.77719727 45.50352539 24.77719727 45.50352539 26.27148438 45.44335938 C27.20927734 45.40146484 28.14707031 45.35957031 29.11328125 45.31640625 C29.97735596 45.27974854 30.84143066 45.24309082 31.73168945 45.20532227 C34.1647826 45.07252646 34.1647826 45.07252646 37 44 C37.33 43.01 37.66 42.02 38 41 C39.32 41 40.64 41 42 41 C42 44.63 42 48.26 42 52 C28.14 52 14.28 52 0 52 C0 51.01 0 50.02 0 49 C0.99 48.505 0.99 48.505 2 48 C2 33.48 2 18.96 2 4 C1.34 3.67 0.68 3.34 0 3 C0 2.01 0 1.02 0 0 Z " fill="#F1B259" transform="translate(523,448)"/>
<path d="M0 0 C4.24978899 1.91707048 6.55596701 4.25517046 8.9375 8.25 C11.59378659 17.62512914 9.43243723 24.43839756 5 33 C1.54817656 38.74671705 -2.37566928 42.40042834 -8 46 C-8.66 45.67 -9.32 45.34 -10 45 C-9.62488281 44.55011719 -9.24976563 44.10023438 -8.86328125 43.63671875 C-2.56674589 35.72243375 1.96570093 27.69062562 1.41796875 17.328125 C1.11148641 14.82215621 1.11148641 14.82215621 -0.625 12.3125 C-3.79960959 10.55811049 -5.41547905 10.35478623 -9 11 C-12.0270185 12.94389103 -14.46284542 15.46284542 -17 18 C-17.721875 17.154375 -18.44375 16.30875 -19.1875 15.4375 C-21.71845014 12.69214482 -21.71845014 12.69214482 -24.6875 13.0625 C-27.1427942 13.88303421 -27.1427942 13.88303421 -29 16 C-30.5536451 26.56839979 -26.89370889 33.58587562 -20.875 41.9375 C-16.35868419 47.79142681 -11.37435249 52.92858596 -6 58 C-11.22409876 58 -14.92764389 54.03407835 -19 51 C-20.30324219 50.04480469 -20.30324219 50.04480469 -21.6328125 49.0703125 C-29.20320416 43.30570234 -36.37871926 36.40577206 -39 27 C-40.2217977 13.95730956 -40.2217977 13.95730956 -37.1875 9.3125 C-36.465625 8.549375 -35.74375 7.78625 -35 7 C-34.5875 6.401875 -34.175 5.80375 -33.75 5.1875 C-30.80469281 3.18889869 -27.47488642 2.96593249 -24 3 C-22.31301918 3.61344757 -20.64034193 4.27095914 -19 5 C-15.94231292 4.79615419 -14.38909849 3.61231251 -11.75 1.9375 C-7.81524286 -0.34936739 -4.47286163 -1.0017804 0 0 Z " fill="#F3F4F8" transform="translate(564,511)"/>
<path d="M0 0 C5.28 0 10.56 0 16 0 C16 0.99 16 1.98 16 3 C15.34 3 14.68 3 14 3 C16.97 9.27 19.94 15.54 23 22 C25.45578005 18.72562661 27.36226566 15.72635725 29.25 12.125 C29.79140625 11.11695313 30.3328125 10.10890625 30.890625 9.0703125 C32.43395743 5.58323182 32.43395743 5.58323182 31 0 C35.62 0 40.24 0 45 0 C45 3 45 3 43.18847656 4.90625 C42.4662793 5.5971875 41.74408203 6.288125 41 7 C31.32352704 20.41221111 26.8036834 32.53588235 29 49 C29.33 49.99 29.66 50.98 30 52 C24.72 52 19.44 52 14 52 C14 51.01 14 50.02 14 49 C14.99 48.505 14.99 48.505 16 48 C17.56902016 33.25121047 14.17127113 24.20016176 6 12 C5.34 11.00226563 4.68 10.00453125 4 8.9765625 C3.01262951 7.50974768 2.00469662 6.05614593 0.9609375 4.62890625 C0 3 0 3 0 0 Z " fill="#EEB05A" transform="translate(470,448)"/>
<path d="M0 0 C2.8125 -0.3125 2.8125 -0.3125 6 0 C8.49917965 3.44345407 9.91950227 7.14924445 11.375 11.125 C12.99830256 15.46034581 14.72450327 19.68264119 16.6875 23.875 C18.55130778 27.87808401 19.95227866 31.71386723 21 36 C18.36 36 15.72 36 13 36 C12.01 33.03 11.02 30.06 10 27 C5.55038819 26.8971188 1.34199992 26.96414588 -3 28 C-5.28355244 30.40561315 -6.22070527 32.80270667 -7 36 C-9.31 36 -11.62 36 -14 36 C-11.82923662 27.31694646 -8.04565421 19.23190884 -4.3125 11.125 C-2.63130973 7.47184756 -1.14839866 3.86279548 0 0 Z " fill="#F4F4F8" transform="translate(678,520)"/>
<path d="M0 0 C2.31 0 4.62 0 7 0 C7 4.95 7 9.9 7 15 C11.29 15 15.58 15 20 15 C20 10.05 20 5.1 20 0 C22.31 0 24.62 0 27 0 C27 11.88 27 23.76 27 36 C24.69 36 22.38 36 20 36 C20 31.05 20 26.1 20 21 C15.71 21 11.42 21 7 21 C7 25.95 7 30.9 7 36 C4.69 36 2.38 36 0 36 C0 24.12 0 12.24 0 0 Z " fill="#F0F1F7" transform="translate(490,520)"/>
<path d="M0 0 C15 0 15 0 21 4 C23.35242347 7.20785018 23.4684209 10.09649252 23 14 C20.93317854 17.76456766 18.89572045 21.05213977 15 23 C12.28030038 23.23535862 9.74012924 23.13700646 7 23 C7 27.29 7 31.58 7 36 C4.69 36 2.38 36 0 36 C0 24.12 0 12.24 0 0 Z " fill="#F3F4F8" transform="translate(604,520)"/>
<path d="M0 0 C3.53386955 1.08514782 6.03627773 3.46030384 7.93359375 6.59375 C7.93359375 7.91375 7.93359375 9.23375 7.93359375 10.59375 C5.62359375 10.59375 3.31359375 10.59375 0.93359375 10.59375 C0.60359375 9.93375 0.27359375 9.27375 -0.06640625 8.59375 C-1.71640625 8.59375 -3.36640625 8.59375 -5.06640625 8.59375 C-5.06640625 10.24375 -5.06640625 11.89375 -5.06640625 13.59375 C-4.463125 13.84769531 -3.85984375 14.10164062 -3.23828125 14.36328125 C5.24383318 18.01606279 5.24383318 18.01606279 7.93359375 20.59375 C9.17276581 24.31126617 9.47678336 27.7310683 8.93359375 31.59375 C7.13605141 34.65622955 5.69588244 36.16109966 2.62109375 37.90625 C-0.81494776 38.78523736 -3.53042755 38.97260486 -7.06640625 38.59375 C-10.50139332 36.45642471 -12.70242254 34.43770408 -14.06640625 30.59375 C-14.06640625 29.60375 -14.06640625 28.61375 -14.06640625 27.59375 C-11.75640625 27.59375 -9.44640625 27.59375 -7.06640625 27.59375 C-6.73640625 28.91375 -6.40640625 30.23375 -6.06640625 31.59375 C-2.60140625 31.09875 -2.60140625 31.09875 0.93359375 30.59375 C0.93359375 28.61375 0.93359375 26.63375 0.93359375 24.59375 C0.17433594 24.21863281 -0.58492187 23.84351563 -1.3671875 23.45703125 C-2.85798828 22.68939453 -2.85798828 22.68939453 -4.37890625 21.90625 C-5.36503906 21.40738281 -6.35117187 20.90851562 -7.3671875 20.39453125 C-10.36365487 18.39544086 -11.540862 16.82609129 -13.06640625 13.59375 C-13.69140625 10.15625 -13.69140625 10.15625 -13.06640625 6.59375 C-9.76225127 2.02800857 -5.68776371 -0.44349035 0 0 Z " fill="#F1F2F7" transform="translate(590.06640625,518.40625)"/>
<path d="M0 0 C5.75 -0.125 5.75 -0.125 8 1 C8.625 4.0625 8.625 4.0625 9 7 C9.74765625 6.99097656 10.4953125 6.98195313 11.265625 6.97265625 C19.21382903 7.21193464 19.21382903 7.21193464 21.62109375 9.625 C22.6875 11.5625 22.6875 11.5625 24 15 C24.515625 14.855625 25.03125 14.71125 25.5625 14.5625 C28.68509571 13.84190099 31.82550692 13.42733561 35 13 C35.5775 13.94875 36.155 14.8975 36.75 15.875 C38.82816551 18.76134098 39.75468075 19.84095741 43 21 C43 21.99 43 22.98 43 24 C38.87698217 25.37433928 34.87708578 25.5171949 30.55078125 25.7578125 C27.04330988 25.93581851 27.04330988 25.93581851 23.79296875 26.5546875 C20.41340565 26.97984435 18.2455626 27.0773086 15 26 C11.59614623 22.28718104 9.28909072 18.28909022 6.97412109 13.83886719 C5.59100803 11.22793796 4.01011515 8.75005485 2.4375 6.25 C0 2.2601626 0 2.2601626 0 0 Z " fill="#314088" transform="translate(293,636)"/>
<path d="M0 0 C6.6 0 13.2 0 20 0 C20 2.31 20 4.62 20 7 C17.69 7 15.38 7 13 7 C13 16.57 13 26.14 13 36 C11.02 36 9.04 36 7 36 C7 26.1 7 16.2 7 6 C4.69 6 2.38 6 0 6 C0 4.02 0 2.04 0 0 Z " fill="#FAFAFC" transform="translate(643,520)"/>
<path d="M0 0 C2.875 1.5625 2.875 1.5625 5 4 C5.84521808 8.56417764 5.41340573 10.3857972 2.8125 14.25 C-1.70360111 18.66574331 -1.70360111 18.66574331 -5 20 C-8.74042509 19.93550991 -11.03326481 19.81081016 -13.9375 17.375 C-15.55797212 13.75276821 -15.78983756 11.9491878 -15 8 C-10.7349342 2.72867409 -7.03974075 -0.78431894 0 0 Z " fill="#3B4C93" transform="translate(730,338)"/>
<path d="M0 0 C3.5625 0.625 3.5625 0.625 6.5 2.5 C9.3910047 6.88031015 9.351313 10.51449874 8.5625 15.625 C6.53618421 20.13815789 6.53618421 20.13815789 3.5625 21.625 C-2.28673339 22.08922487 -2.28673339 22.08922487 -4.4375 21.625 C-6.76612427 19.40174335 -7.38381212 17.97663142 -7.87109375 14.78515625 C-7.88148048 6.5484794 -7.88148048 6.5484794 -5.875 2.375 C-3.4375 0.625 -3.4375 0.625 0 0 Z " fill="#3C4D94" transform="translate(531.4375,237.375)"/>
<path d="M0 0 C1.98 0 3.96 0 6 0 C6 9.9 6 19.8 6 30 C9.63 30 13.26 30 17 30 C17 31.98 17 33.96 17 36 C11.39 36 5.78 36 0 36 C0 24.12 0 12.24 0 0 Z " fill="#FEFEFE" transform="translate(703,520)"/>
<path d="M0 0 C2.14453125 0.015625 2.14453125 0.015625 4.8125 0.25 C6.12154297 0.35054687 6.12154297 0.35054687 7.45703125 0.453125 C10.36981374 1.07952984 11.86201256 1.94047082 14 4 C14.48258885 7.30918071 14.63437797 9.13493913 12.625 11.875 C11 13 11 13 9 13 C9.495 14.0828125 9.495 14.0828125 10 15.1875 C11.00603529 18.01697427 11.16977402 20.02895466 11 23 C9.35 22.67 7.7 22.34 6 22 C5.34 19.69 4.68 17.38 4 15 C3.34 15 2.68 15 2 15 C1.34 16.98 0.68 18.96 0 21 C-1.32 21 -2.64 21 -4 21 C-4.4816672 14.09610352 -2.85415215 7.62883411 -1 1 C-0.67 0.67 -0.34 0.34 0 0 Z " fill="#415196" transform="translate(567,243)"/>
<path d="M0 0 C3.18037751 4.86995306 4.80857901 7.99341303 4 14 C2.9375 15.9375 2.9375 15.9375 1 17 C-0.11375 16.9175 -1.2275 16.835 -2.375 16.75 C-5.93513837 16.59971399 -5.93513837 16.59971399 -7.56640625 18.546875 C-8.81299113 20.32263694 -9.94953205 22.10238047 -11 24 C-11.66 23.34 -12.32 22.68 -13 22 C-12.64700993 18.55834679 -11.95418308 16.93127462 -10 14 C-10 13.01 -10 12.02 -10 11 C-10.763125 11.309375 -11.52625 11.61875 -12.3125 11.9375 C-14.18789677 12.67893593 -16.08684652 13.36228217 -18 14 C-18.33 12.68 -18.66 11.36 -19 10 C-16.70912072 8.51960151 -14.41734017 7.04063324 -12.125 5.5625 C-11.47402344 5.14162109 -10.82304688 4.72074219 -10.15234375 4.28710938 C-3.49875 0 -3.49875 0 0 0 Z " fill="#3C4D94" transform="translate(755,370)"/>
<path d="M0 0 C-0.31138135 3.2779964 -0.67325837 4.68067027 -3.06640625 7.01953125 C-5.37760417 8.6796875 -7.68880208 10.33984375 -10 12 C-6.37 12 -2.74 12 1 12 C1 13.32 1 14.64 1 16 C-9.395 16.99 -9.395 16.99 -20 18 C-18.71749815 11.58749076 -16.97083242 10.88628716 -12 7 C-15.3 6.67 -18.6 6.34 -22 6 C-21.67 4.35 -21.34 2.7 -21 1 C-13.97252688 0.33411422 -7.05985273 -0.11766421 0 0 Z " fill="#3E4F95" transform="translate(795,483)"/>
<path d="M0 0 C0.27672202 1.91299138 0.52042815 3.83077936 0.75 5.75 C0.88921875 6.81734375 1.0284375 7.8846875 1.171875 8.984375 C1 12 1 12 -0.76171875 14.38671875 C-3 16 -3 16 -6.5625 16.0625 C-10 15 -10 15 -11.9375 12.625 C-13 10 -13 10 -13 7 C-15.64 7.33 -18.28 7.66 -21 8 C-21 6.35 -21 4.7 -21 3 C-16.96755105 1.77273293 -12.93190074 0.70961394 -8.8125 -0.1875 C-7.99394531 -0.36667969 -7.17539062 -0.54585938 -6.33203125 -0.73046875 C-3.91326525 -1.01002462 -2.29914634 -0.74524054 0 0 Z " fill="#3F5095" transform="translate(790,454)"/>
<path d="M0 0 C0.9738963 2.92168889 1.19605823 5.01029474 1.25 8.0625 C1.27578125 8.94035156 1.3015625 9.81820313 1.328125 10.72265625 C1.21984375 11.47417969 1.1115625 12.22570312 1 13 C-2.70415293 15.46943529 -4.62144505 15.46913089 -9 15 C-10.9375 13.25 -10.9375 13.25 -12 11 C-12 9.68 -12 8.36 -12 7 C-14.97 7.66 -17.94 8.32 -21 9 C-21 7.35 -21 5.7 -21 4 C-18.44165429 3.13118459 -15.87957539 2.2797867 -13.3125 1.4375 C-12.59126953 1.19064453 -11.87003906 0.94378906 -11.12695312 0.68945312 C-7.05647168 -0.63020068 -4.21972067 -1.38992772 0 0 Z " fill="#3E4F95" transform="translate(785,435)"/>
<path d="M0 0 C2.171875 0.37890625 2.171875 0.37890625 4 1 C3.53430878 8.8187104 2.77541538 16.36399015 1 24 C-0.32 23.34 -1.64 22.68 -3 22 C-3 20.68 -3 19.36 -3 18 C-3.66 18 -4.32 18 -5 18 C-5 17.34 -5 16.68 -5 16 C-8.19902639 15.91113816 -10.92677456 16.08941469 -14 17 C-14 13 -14 13 -12.4609375 11.03515625 C-10.3190167 9.00955699 -8.17677816 6.98817645 -6 5 C-5.14535156 4.17628906 -5.14535156 4.17628906 -4.2734375 3.3359375 C-2.75 1.9375 -2.75 1.9375 0 0 Z " fill="#425397" transform="translate(638,266)"/>
<path d="M0 0 C7.59 0 15.18 0 23 0 C23.33 1.32 23.66 2.64 24 4 C21.75431285 5.96347513 19.50376879 7.92083936 17.25 9.875 C16.61578125 10.43058594 15.9815625 10.98617188 15.328125 11.55859375 C14.709375 12.09355469 14.090625 12.62851562 13.453125 13.1796875 C12.88754883 13.67194824 12.32197266 14.16420898 11.73925781 14.67138672 C9.91389476 16.06577551 8.0814339 17.03903147 6 18 C5.375 16.25 5.375 16.25 5 14 C5.495 13.0409375 5.495 13.0409375 6 12.0625 C7.31040647 9.35978665 6.78610392 7.82997412 6 5 C4.35 5 2.7 5 1 5 C0.67 3.35 0.34 1.7 0 0 Z " fill="#51619F" transform="translate(756,419)"/>
<path d="M0 0 C1.98 0 3.96 0 6 0 C6 11.88 6 23.76 6 36 C4.02 36 2.04 36 0 36 C0 24.12 0 12.24 0 0 Z " fill="#FEFEFE" transform="translate(632,520)"/>
<path d="M0 0 C1.32 0.33 2.64 0.66 4 1 C4.125 7.75 4.125 7.75 3 10 C4.98 10 6.96 10 9 10 C9.66 8.02 10.32 6.04 11 4 C12.32 4 13.64 4 15 4 C13.56390017 10.73862227 11.85991713 17.36629557 10 24 C8.68 24.33 7.36 24.66 6 25 C4.53273202 21.18510326 5.56663581 18.70988378 7 15 C4.69 14.67 2.38 14.34 0 14 C-0.33 15.98 -0.66 17.96 -1 20 C-2.32 20.33 -3.64 20.66 -5 21 C-4.5003731 13.50559651 -2.56235522 7.04349737 0 0 Z " fill="#415297" transform="translate(594,249)"/>
<path d="M0 0 C0 0.99 0 1.98 0 3 C-2.31 3.66 -4.62 4.32 -7 5 C-6.34 6.65 -5.68 8.3 -5 10 C-0.545 9.505 -0.545 9.505 4 9 C4.33 10.32 4.66 11.64 5 13 C2.2336466 14.34277732 -0.53876211 15.67255228 -3.3125 17 C-4.09818359 17.3815625 -4.88386719 17.763125 -5.69335938 18.15625 C-6.45068359 18.5171875 -7.20800781 18.878125 -7.98828125 19.25 C-8.68477783 19.58515625 -9.38127441 19.9203125 -10.09887695 20.265625 C-12 21 -12 21 -15 21 C-15.33 19.68 -15.66 18.36 -16 17 C-13.69 16.01 -11.38 15.02 -9 14 C-9.33 12.02 -9.66 10.04 -10 8 C-11.093125 8.495 -12.18625 8.99 -13.3125 9.5 C-17 11 -17 11 -20 11 C-19.95703125 8.7421875 -19.95703125 8.7421875 -19 6 C-16.52031326 4.42664026 -14.35119034 3.27120913 -11.6875 2.125 C-11.01009766 1.8053125 -10.33269531 1.485625 -9.63476562 1.15625 C-5.95982326 -0.49621675 -3.83010674 -1.2501519 0 0 Z " fill="#3F5095" transform="translate(769,396)"/>
<path d="M0 0 C7.26 0 14.52 0 22 0 C22 4.95 22 9.9 22 15 C20.68 15 19.36 15 18 15 C18 11.7 18 8.4 18 5 C16.35 5 14.7 5 13 5 C13 7.64 13 10.28 13 13 C12.01 13 11.02 13 10 13 C10 10.36 10 7.72 10 5 C8.02 5 6.04 5 4 5 C4 8.3 4 11.6 4 15 C2.68 15 1.36 15 0 15 C0 10.05 0 5.1 0 0 Z " fill="#4B5B9C" transform="translate(775,505)"/>
<path d="M0 0 C1.32 0.33 2.64 0.66 4 1 C3.690625 1.556875 3.38125 2.11375 3.0625 2.6875 C1.94238179 5.12540433 1.43962636 7.36224186 1 10 C2.32 10.66 3.64 11.32 5 12 C6.32 10.35 7.64 8.7 9 7 C9.99 7.33 10.98 7.66 12 8 C11.12429445 12.40785758 8.68803513 15.30710183 5.9375 18.75 C5.46505859 19.35199219 4.99261719 19.95398438 4.50585938 20.57421875 C3.34309599 22.05409943 2.1723234 23.52768096 1 25 C-0.32 24.67 -1.64 24.34 -3 24 C-2.690625 23.2575 -2.38125 22.515 -2.0625 21.75 C-1.1905075 19.49307824 -0.52332993 17.3549847 0 15 C-1.32 14.34 -2.64 13.68 -4 13 C-5.32 14.65 -6.64 16.3 -8 18 C-9.32 17.67 -10.64 17.34 -12 17 C-10.53416665 12.45928635 -7.95468267 9.23733031 -4.875 5.6875 C-4.40707031 5.13771484 -3.93914063 4.58792969 -3.45703125 4.02148438 C-2.31047517 2.67603591 -1.15602549 1.337321 0 0 Z " fill="#3D4E95" transform="translate(680,292)"/>
<path d="M0 0 C1.65 0 3.3 0 5 0 C4.67 5.61 4.34 11.22 4 17 C5.65 17 7.3 17 9 17 C9.99 12.05 10.98 7.1 12 2 C13.32 2 14.64 2 16 2 C15.91249445 4.22988284 15.80430939 6.45896005 15.6875 8.6875 C15.62949219 9.92886719 15.57148437 11.17023438 15.51171875 12.44921875 C14.98253228 16.12120728 14.22400638 18.06811511 12 21 C9 23 9 23 5.5 22.8125 C0.98167685 21.76360355 0.98167685 21.76360355 -1 19 C-1.328125 16.328125 -1.328125 16.328125 -1.25 13.25 C-1.22421875 12.1878125 -1.1984375 11.125625 -1.171875 10.03125 C-0.97856582 6.62197903 -0.61048979 3.35769386 0 0 Z " fill="#48589A" transform="translate(545,239)"/>
<path d="M0 0 C3.11547441 0.67883043 5.85137721 1.74106902 8.75 3.0625 C9.54921875 3.42472656 10.3484375 3.78695313 11.171875 4.16015625 C11.77515625 4.43730469 12.3784375 4.71445312 13 5 C13 5.99 13 6.98 13 8 C8.94393835 7.53199289 5.53411321 7.12046792 2 5 C1.67 6.65 1.34 8.3 1 10 C3.64 10.66 6.28 11.32 9 12 C8.67 13.32 8.34 14.64 8 16 C4.65626525 15.44271087 1.96687001 14.64826111 -1 13 C-0.96906827 15.41585574 -0.96906827 15.41585574 0 18 C2.96707046 19.85916824 2.96707046 19.85916824 6 21 C6 22.32 6 23.64 6 25 C1.14036821 24.39254603 -2.7405518 22.27241033 -7 20 C-6.41161801 15.15888235 -4.92346884 11.03928805 -2.9375 6.625 C-2.65583984 5.98433594 -2.37417969 5.34367187 -2.08398438 4.68359375 C-1.39540579 3.11970341 -0.69855289 1.55946059 0 0 Z " fill="#3F5095" transform="translate(615,256)"/>
<path d="M0 0 C0.99 0.33 1.98 0.66 3 1 C2.68276924 4.05081496 2.11098219 4.90666113 -0.28515625 6.921875 C-1.20167969 7.52515625 -2.11820313 8.1284375 -3.0625 8.75 C-4.44115234 9.67039062 -4.44115234 9.67039062 -5.84765625 10.609375 C-6.55792969 11.06828125 -7.26820313 11.5271875 -8 12 C-7.67 13.65 -7.34 15.3 -7 17 C-2.78458622 16.47027544 -0.5437774 15.15308967 2.6875 12.4375 C6.8028169 9 6.8028169 9 9 9 C9.33 10.32 9.66 11.64 10 13 C8.56351736 14.12629875 7.12577415 15.2509899 5.6875 16.375 C4.88699219 17.00148438 4.08648438 17.62796875 3.26171875 18.2734375 C-1.14349568 21.63631277 -3.41353357 22.49879165 -9 22 C-11.65055389 19.96305882 -12.65041387 18.06535793 -13.3125 14.8125 C-13.53515625 12.421875 -13.53515625 12.421875 -13 10 C-10.05940578 6.73143781 -6.67710078 4.38097985 -3 2 C-2.01 1.34 -1.02 0.68 0 0 Z " fill="#3E4F95" transform="translate(740,352)"/>
<path d="M0 0 C0.66 0 1.32 0 2 0 C2.33773437 0.96421875 2.67546875 1.9284375 3.0234375 2.921875 C3.47382212 4.19796475 3.92435053 5.47400376 4.375 6.75 C4.59671875 7.38421875 4.8184375 8.0184375 5.046875 8.671875 C5.97019665 11.27890084 6.89888562 13.80320021 8.1640625 16.265625 C9 18 9 18 9 21 C3.72 21 -1.56 21 -7 21 C-5.62820313 13.51747162 -3.07836721 6.94395046 0 0 Z " fill="#394585" transform="translate(682,448)"/>
<path d="M0 0 C2.875 2.75 2.875 2.75 5 6 C5 7.32 5 8.64 5 10 C3.125 9.75 3.125 9.75 1 9 C-0.25 6.9375 -0.25 6.9375 -1 5 C-1.99 5 -2.98 5 -4 5 C-3.38722388 7.96175123 -2.74627478 9.38058783 -1 12 C-0.49548351 15.27935719 -0.72477247 16.58165416 -2.5625 19.375 C-5 21 -5 21 -8.4375 21.125 C-13.16432984 19.63231689 -14.32879198 18.12823057 -17 14 C-17 12.68 -17 11.36 -17 10 C-15.68 10 -14.36 10 -13 10 C-12.01 11.98 -11.02 13.96 -10 16 C-9.01 16 -8.02 16 -7 16 C-7.65585189 12.39007621 -7.65585189 12.39007621 -9 9 C-9.44720497 3.74534161 -9.44720497 3.74534161 -7.875 1.125 C-4.99171297 -0.60497222 -3.29989169 -0.5939805 0 0 Z " fill="#445498" transform="translate(713,318)"/>
<path d="M0 0 C0.99 0.33 1.98 0.66 3 1 C2.67 4.3 2.34 7.6 2 11 C3.32 11 4.64 11 6 11 C6.28875 9.88625 6.5775 8.7725 6.875 7.625 C8 4 8 4 10 2 C11.875 1.91796875 11.875 1.91796875 14 2.1875 C14.70125 2.26355469 15.4025 2.33960938 16.125 2.41796875 C18 3 18 3 20 6 C20.375 9.5 20.375 9.5 20 13 C18 14.9375 18 14.9375 16 16 C15.29925156 12.846632 15 10.27275026 15 7 C13.68 6.67 12.36 6.34 11 6 C11 7.98 11 9.96 11 12 C10.34 12 9.68 12 9 12 C8.34 13.32 7.68 14.64 7 16 C4.75 16.3125 4.75 16.3125 2 16 C-1.12547497 13.21241421 -1.93447593 11.62247864 -2.375 7.4375 C-2.03942515 4.36139717 -1.64408193 2.56887802 0 0 Z " fill="#405196" transform="translate(776,540)"/>
<path d="M0 0 C0.99 0.33 1.98 0.66 3 1 C3 4.3 3 7.6 3 11 C3.99 11 4.98 11 6 11 C6.99 8.03 7.98 5.06 9 2 C12.69310412 0.96936629 14.38987838 0.69493919 17.875 2.4375 C20.91322769 6.10124515 20.38856887 8.33717357 20 13 C18.02 13.99 18.02 13.99 16 15 C14.93453047 11.8035914 14.92572162 9.34252724 15 6 C14.01 6 13.02 6 12 6 C11.01 8.97 10.02 11.94 9 15 C5.75 15.8125 5.75 15.8125 2 16 C-0.5 14.125 -0.5 14.125 -2 11 C-2.08608985 7.15244598 -1.73211295 3.46422591 0 0 Z " fill="#415196" transform="translate(777,522)"/>
<path d="M0 0 C0.99 0.495 0.99 0.495 2 1 C1.49976255 1.35849659 0.99952511 1.71699318 0.48412895 2.0863533 C-4.27099494 5.56228779 -8.52559682 9.24519595 -12.65966797 13.43261719 C-13.27209854 14.04475571 -13.88452911 14.65689423 -14.51551819 15.2875824 C-16.51252685 17.2859698 -18.50238065 19.29131888 -20.4921875 21.296875 C-21.88799852 22.69642223 -23.28425627 24.09552407 -24.68093872 25.49420166 C-28.33746317 29.15832219 -31.98794088 32.82840871 -35.637146 36.49981689 C-39.36121619 40.24440426 -43.09100319 43.98328788 -46.8203125 47.72265625 C-53.35857384 54.2800154 -59.89191097 60.8422478 -66.42160034 67.40814209 C-67.9459947 68.94049319 -69.47162209 70.47162209 -71 72 C-71 68 -71 68 -69.65820312 66.18823242 C-69.03880859 65.58342041 -68.41941406 64.9786084 -67.78125 64.35546875 C-67.09546875 63.67806641 -66.4096875 63.00066406 -65.703125 62.30273438 C-64.97609375 61.60470703 -64.2490625 60.90667969 -63.5 60.1875 C-62.80390625 59.50107422 -62.1078125 58.81464844 -61.390625 58.10742188 C-58.1324907 54.91867377 -54.8199823 51.84200957 -51.36035156 48.87353516 C-46.31908158 44.47880732 -41.64971307 39.7376244 -36.953125 34.98046875 C-36.01044369 34.03082375 -35.06738214 33.08155607 -34.1239624 32.13264465 C-30.15524647 28.13971051 -26.19247185 24.14091664 -22.23388672 20.13793945 C-20.26971639 18.15216388 -18.30289512 16.1690835 -16.33319092 14.188797 C-14.48585831 12.33112984 -12.64264371 10.46935648 -10.80401611 8.60307312 C-9.96924744 7.76492569 -9.13447876 6.92677826 -8.27441406 6.06323242 C-7.54353577 5.3248967 -6.81265747 4.58656097 -6.05963135 3.82585144 C-4.08523417 2.0755596 -2.47241732 0.90966259 0 0 Z " fill="#28C2E8" transform="translate(825,279)"/>
<path d="M0 0 C2.3125 0.0625 2.3125 0.0625 5 1 C6.8125 4.5625 6.8125 4.5625 8 8 C9.32 5.36 10.64 2.72 12 0 C13.32 0 14.64 0 16 0 C15.51035207 2.54616926 14.84914295 4.25142841 13.5 6.5 C11.33802726 11.54460305 11.25517428 16.56214802 11 22 C9.35 22 7.7 22 6 22 C5.98582031 21.39414062 5.97164063 20.78828125 5.95703125 20.1640625 C5.60196142 13.92634932 4.10143026 9.47904795 1.05859375 4.03125 C0 2 0 2 0 0 Z " fill="#445598" transform="translate(505,237)"/>
<path d="M0 0 C2.5 0.375 2.5 0.375 4.375 1.625 C5.5 3.375 5.5 3.375 5.5625 5.3125 C3.90916774 8.52190969 1.62497068 9.66511038 -1.5 11.375 C-4.875 12.125 -4.875 12.125 -7.5 12.375 C-7.5 13.035 -7.5 13.695 -7.5 14.375 C-9.48 14.705 -11.46 15.035 -13.5 15.375 C-12.90952677 11.80822251 -11.54264332 9.95966641 -9.125 7.3125 C-8.51914062 6.64089844 -7.91328125 5.96929687 -7.2890625 5.27734375 C-6.40347656 4.33568359 -6.40347656 4.33568359 -5.5 3.375 C-4.98179687 2.80652344 -4.46359375 2.23804688 -3.9296875 1.65234375 C-2.5 0.375 -2.5 0.375 0 0 Z " fill="#E9AD5B" transform="translate(689.5,413.625)"/>
<path d="M0 0 C3.62276315 1.3255581 6.63505348 2.94346955 9.8125 5.125 C10.60269531 5.66382813 11.39289062 6.20265625 12.20703125 6.7578125 C12.79871094 7.16773438 13.39039063 7.57765625 14 8 C13.67 8.99 13.34 9.98 13 11 C8.25 10.125 8.25 10.125 6 9 C5.73445312 9.72574219 5.46890625 10.45148438 5.1953125 11.19921875 C3.99927052 14.00170928 2.59670893 16.30479352 0.875 18.8125 C0.06675781 19.99779297 0.06675781 19.99779297 -0.7578125 21.20703125 C-1.16773438 21.79871094 -1.57765625 22.39039063 -2 23 C-3.32 22.34 -4.64 21.68 -6 21 C-3.03706364 15.64485683 -0.04862331 10.3068628 3 5 C1.68 4.34 0.36 3.68 -1 3 C-0.67 2.01 -0.34 1.02 0 0 Z " fill="#405196" transform="translate(663,280)"/>
<path d="M0 0 C3.25610321 1.62805161 5.86131662 3.21320754 8.75 5.375 C9.54921875 5.96023438 10.3484375 6.54546875 11.171875 7.1484375 C13 9 13 9 13 13 C10.2598704 11.98223758 7.97617775 10.98350767 5.5625 9.3125 C2.14603168 7.56260159 0.65260735 7.9042178 -3 9 C-5.43261564 10.21630782 -7.68304243 11.56348631 -10 13 C-10.66 11.68 -11.32 10.36 -12 9 C-8.04 6.03 -4.08 3.06 0 0 Z " fill="#E6AB5C" transform="translate(540,430)"/>
<path d="M0 0 C1.32 0.33 2.64 0.66 4 1 C2.48414126 5.27196555 0.31902694 9.02615668 -1.9765625 12.9140625 C-3.22023806 15.06163549 -3.22023806 15.06163549 -3 18 C-1.02 18.99 0.96 19.98 3 21 C3 22.32 3 23.64 3 25 C-0.29680965 24.34215037 -2.84117922 23.10579427 -5.75 21.4375 C-6.54921875 20.98246094 -7.3484375 20.52742188 -8.171875 20.05859375 C-8.77515625 19.70925781 -9.3784375 19.35992187 -10 19 C-8.62394084 14.23448987 -6.53221934 10.2751447 -3.875 6.125 C-3.50246094 5.53203125 -3.12992188 4.9390625 -2.74609375 4.328125 C-1.83635 2.8818657 -0.91896202 1.44041954 0 0 Z " fill="#3E4F95" transform="translate(651,273)"/>
<path d="M0 0 C1.32 0.33 2.64 0.66 4 1 C3.4697989 5.02221525 1.5114386 6.77236223 -1.375 9.5 C-4.20817242 12.1947438 -6.74533315 14.7998277 -9 18 C-10.32 17.67 -11.64 17.34 -13 17 C-12.4697989 12.97778475 -10.5114386 11.22763777 -7.625 8.5 C-4.79182758 5.8052562 -2.25466685 3.2001723 0 0 Z " fill="#405196" transform="translate(702,310)"/>
<path d="M0 0 C0 1.32 0 2.64 0 4 C-2.3736397 4.50734284 -4.74857425 5.00602386 -7.125 5.5 C-7.79015625 5.64308594 -8.4553125 5.78617187 -9.140625 5.93359375 C-13.16056422 6.7612283 -16.89904899 7.15330658 -21 7 C-20.67 5.35 -20.34 3.7 -20 2 C-6.3667426 -0.29612756 -6.3667426 -0.29612756 0 0 Z " fill="#445498" transform="translate(793,473)"/>
<path d="M0 0 C0.680625 0.28875 1.36125 0.5775 2.0625 0.875 C2.5 3 2.5 3 2.0625 5.875 C0.01662506 8.28158016 -2.21729312 10.26609715 -4.9375 11.875 C-6.2575 11.875 -7.5775 11.875 -8.9375 11.875 C-9.875 9.25 -9.875 9.25 -9.9375 5.875 C-7.2766071 2.29819145 -4.55165363 -0.19368739 0 0 Z " fill="#EEF0F6" transform="translate(728.9375,342.125)"/>
<path d="M0 0 C2.5 0.125 2.5 0.125 3.5 1.125 C3.62487758 2.93427281 3.67570846 4.74896107 3.6875 6.5625 C3.70167969 7.55121094 3.71585938 8.53992188 3.73046875 9.55859375 C3.5 12.125 3.5 12.125 1.5 14.125 C-2.03571429 13.58928571 -2.03571429 13.58928571 -3.5 12.125 C-3.59851171 10.29384117 -3.62972629 8.45880067 -3.625 6.625 C-3.62757813 5.6246875 -3.63015625 4.624375 -3.6328125 3.59375 C-3.45286995 0.24893545 -3.34848919 0.16742446 0 0 Z " fill="#F3F4F8" transform="translate(531.5,241.875)"/>
<path d="M0 0 C0.99 0.33 1.98 0.66 3 1 C-0.78388744 4.83329041 -4.57427069 8.65999192 -8.37084961 12.48071289 C-9.66172461 13.78165129 -10.95079964 15.08437829 -12.23803711 16.38891602 C-14.0875885 18.26270045 -15.94349751 20.12997726 -17.80078125 21.99609375 C-18.37588943 22.58152451 -18.95099762 23.16695526 -19.54353333 23.77012634 C-23.65838488 27.88612829 -23.65838488 27.88612829 -27 29 C-25.37843976 24.89891114 -22.4232297 22.16851833 -19.3359375 19.140625 C-18.78386627 18.59138367 -18.23179504 18.04214233 -17.66299438 17.47625732 C-15.90498185 15.72940707 -14.1401311 13.98965399 -12.375 12.25 C-11.1792292 11.06426409 -9.98391135 9.8780712 -8.7890625 8.69140625 C-5.86459747 5.78894915 -2.93398126 2.8928359 0 0 Z " fill="#2D8EFC" transform="translate(308,793)"/>
<path d="M0 0 C1.32 0 2.64 0 4 0 C3.91249445 2.22988284 3.80430939 4.45896005 3.6875 6.6875 C3.62949219 7.92886719 3.57148437 9.17023438 3.51171875 10.44921875 C2.99089024 14.06321199 2.09845383 16.05766393 0 19 C-1.32 18.67 -2.64 18.34 -4 18 C-3.34 17.34 -2.68 16.68 -2 16 C-1.57198041 12.97875686 -1.57198041 12.97875686 -1.4375 9.5625 C-1.09358289 3.28074866 -1.09358289 3.28074866 0 0 Z " fill="#384A92" transform="translate(557,241)"/>
<path d="M0 0 C3.375 -0.125 3.375 -0.125 7 0 C9 2 9 2 9.3125 4.5 C9.1578125 5.7375 9.1578125 5.7375 9 7 C5.5647952 9.29013653 4.014669 9.17842973 0 9 C0 6.03 0 3.06 0 0 Z " fill="#31438D" transform="translate(611,527)"/>
<path d="M0 0 C0 3 0 3 -2.11132812 5.4519043 C-3.07697101 6.41707201 -4.05087603 7.37401783 -5.03125 8.32421875 C-5.54175903 8.83048294 -6.05226807 9.33674713 -6.57824707 9.85835266 C-8.21193407 11.47523405 -9.85573744 13.08138126 -11.5 14.6875 C-12.6087547 15.78121031 -13.71683647 16.87560326 -14.82421875 17.97070312 C-17.54173139 20.65512158 -20.26836361 23.3299581 -23 26 C-23.66 25.67 -24.32 25.34 -25 25 C-17.3890835 16.51193887 -9.51704764 8.57713577 -1 1 C-0.67 0.67 -0.34 0.34 0 0 Z " fill="#33ACF2" transform="translate(223,200)"/>
<path d="M0 0 C2.3129482 2.3129482 2.49580975 3.47904875 3.125 6.625 C3.29257812 7.44226563 3.46015625 8.25953125 3.6328125 9.1015625 C3.81457031 10.04128906 3.81457031 10.04128906 4 11 C1.69 11 -0.62 11 -3 11 C-3.39253254 6.55129785 -2.15305957 3.85756507 0 0 Z " fill="#51619F" transform="translate(681,530)"/>
<path d="M0 0 C0.33 1.98 0.66 3.96 1 6 C-0.65 6.33 -2.3 6.66 -4 7 C-6 4 -6 4 -6 1 C-4 0 -4 0 0 0 Z " fill="#E6E8F1" transform="translate(782,439)"/>
<path d="M0 0 C0 2.31 0 4.62 0 7 C-1.65 7 -3.3 7 -5 7 C-5.33 5.02 -5.66 3.04 -6 1 C-3 0 -3 0 0 0 Z " fill="#EBECF4" transform="translate(787,458)"/>
<path d="M0 0 C2.97 0.495 2.97 0.495 6 1 C6.5625 2.9375 6.5625 2.9375 7 5 C6 6 6 6 2.9375 6.0625 C1.4834375 6.0315625 1.4834375 6.0315625 0 6 C0 4.02 0 2.04 0 0 Z " fill="#E4E6F0" transform="translate(570,247)"/>
<path d="M0 0 C1.5625 1.1875 1.5625 1.1875 3 3 C2.6875 5.6875 2.6875 5.6875 2 8 C0.68 7.67 -0.64 7.34 -2 7 C-2.33 5.35 -2.66 3.7 -3 2 C-2.01 1.34 -1.02 0.68 0 0 Z " fill="#E9EBF3" transform="translate(752,375)"/>
<path d="M0 0 C-0.33 1.98 -0.66 3.96 -1 6 C-1.33 4.68 -1.66 3.36 -2 2 C-5.96 2 -9.92 2 -14 2 C-14 1.67 -14 1.34 -14 1 C-9.27685687 0.22887459 -4.78478822 -0.09764874 0 0 Z " fill="#5A597D" transform="translate(454,725)"/>
<path d="M0 0 C1.32 0.33 2.64 0.66 4 1 C3.67 1.99 3.34 2.98 3 4 C3 3.34 3 2.68 3 2 C0.36 4.31 -2.28 6.62 -5 9 C-5.66 8.67 -6.32 8.34 -7 8 C-4.69 5.36 -2.38 2.72 0 0 Z " fill="#4F5F9E" transform="translate(702,310)"/>
<path d="M0 0 C0.99 0.33 1.98 0.66 3 1 C2.67 3.97 2.34 6.94 2 10 C1.67 10 1.34 10 1 10 C0.67 8.35 0.34 6.7 0 5 C-0.99 5.495 -0.99 5.495 -2 6 C-1.34 4.02 -0.68 2.04 0 0 Z " fill="#4E5E9E" transform="translate(776,540)"/>
<path d="M0 0 C2.97 0.33 5.94 0.66 9 1 C9 1.66 9 2.32 9 3 C5.86650268 4.04449911 5.01031744 3.93423645 2 3 C2 2.34 2 1.68 2 1 C1.34 0.67 0.68 0.34 0 0 Z " fill="#E5B16A" transform="translate(679,700)"/>
<path d="M0 0 C0.33 0 0.66 0 1 0 C0.67 2.31 0.34 4.62 0 7 C-1.32 6.67 -2.64 6.34 -4 6 C-2.84826645 3.53199953 -1.95216435 1.95216435 0 0 Z " fill="#DCDFEB" transform="translate(636,273)"/>
<path d="M0 0 C1.98 0.495 1.98 0.495 4 1 C4 2.98 4 4.96 4 7 C3.67 7 3.34 7 3 7 C3 5.35 3 3.7 3 2 C1.68 2.99 0.36 3.98 -1 5 C-0.67 3.35 -0.34 1.7 0 0 Z " fill="#CFD3E4" transform="translate(789,527)"/>
</svg>
